<?xml version="1.0" encoding="UTF-8" standalone="no" ?>
<!DOCTYPE svg PUBLIC "-//W3C//DTD SVG 1.1//EN" "http://www.w3.org/Graphics/SVG/1.1/DTD/svg11.dtd">
<svg xmlns="http://www.w3.org/2000/svg" xmlns:xlink="http://www.w3.org/1999/xlink" version="1.1" width="1600.01" height="1500.21" viewBox="0 0 1600.01 1500.21" xml:space="preserve">
<desc>Created with Fabric.js 5.3.0</desc>
<defs>
</defs>
<g transform="matrix(0.9688198603 0 0 0.9688198603 2562.5860170174 536.7374020033)" id="RXdTdmnQgo6o81zVy7qdV"  >
<path style="stroke: none; stroke-width: 1; stroke-dasharray: none; stroke-linecap: butt; stroke-dashoffset: 0; stroke-linejoin: miter; stroke-miterlimit: 4; fill: rgb(237,224,196); fill-rule: nonzero; opacity: 1;"  transform=" translate(-1282.916033627, -950.5000010292)" d="M 675 481.18 L 807.72 341.4 C 852.3656510000001 301.835562 909.956174 279.993211 969.61 280 L 1139 280 C 1163.153429 279.99784 1186.643316 287.9039 1205.88 302.51 L 1288.3700000000001 365.11 C 1306.2796400000002 378.72346500000003 1328.1537440000002 386.099127 1350.65 386.11 L 1518.8200000000002 386.11 C 1565.567207 386.11176900000004 1608.6233180000002 411.508057 1631.2400000000002 452.42 L 1762.2400000000002 689.32 C 1781.5701370000002 724.2845010000001 1818.3678970000003 745.988592 1858.3200000000002 745.99 L 1900.4 745.99 C 1932.6100000000001 745.99 1950.4 783.38 1930.0800000000002 808.39 L 1754.0800000000002 1025.05 C 1740.0870290000003 1042.279527 1735.8630460000002 1065.4624079999999 1742.88 1086.52 L 1775.3500000000001 1183.8899999999999 C 1790.309222 1228.7515019999998 1770.4256930000001 1277.830614 1728.46 1299.6299999999999 L 1686.95 1321.1799999999998 C 1669.286485 1330.3357689999998 1655.499394 1345.531734 1648.1000000000001 1363.9999999999998 L 1600.39 1483.2999999999997 C 1567.135633 1566.4769139999996 1486.578187 1621.0162729999997 1397 1620.9999999999998 L 1376.36 1620.9999999999998 C 1354.2638619999998 1620.9973169999998 1334.079104 1608.4695149999998 1324.27 1588.6699999999998 L 1190.9 1319.6 C 1175.081345 1287.702761 1177.267137 1249.825838 1196.65 1219.9599999999998 L 1205.8000000000002 1205.87 C 1232.7516210000001 1164.3425869999999 1227.159057 1109.6528039999998 1192.3600000000001 1074.4399999999998 L 1131.3600000000001 1012.7499999999998 C 1112.8196110000001 987.7660719999998 1110.719462 954.2106979999998 1126.0000000000002 927.1099999999998 L 1142.6400000000003 897.6099999999998 C 1147.5590510000004 888.8935169999997 1147.4818530000002 878.2210789999998 1142.4372210000004 869.5766679999998 C 1137.3925890000005 860.9322569999998 1128.1387020000004 855.6150719999998 1118.1300000000003 855.6099999999998 L 843.8100000000004 855.6099999999998 C 724.1300000000003 855.6099999999998 627.1100000000004 758.5399999999997 627.1100000000004 638.8099999999997 L 627.1100000000004 601.1399999999998 C 627.1151830000003 556.4946349999998 644.2575690000003 513.5545509999997 675.0000000000003 481.1799999999998 Z" stroke-linecap="round" />
</g>
<g transform="matrix(1 0 0 1 765.5383060308 745.3948422369)" id="IVfEfTJi0whECzGWfTU5K"  >
<g style=""   >
		<g transform="matrix(2.0678736662 0 0 2.0678736662 -92.0203781459 -156.1244617981)" id="hcwfdFgN6q5lCJXTtsGsY"  >
<path style="stroke: rgb(187,187,187); stroke-width: 0; stroke-dasharray: none; stroke-linecap: butt; stroke-dashoffset: 0; stroke-linejoin: miter; stroke-miterlimit: 4; fill: rgb(237,224,196); fill-rule: nonzero; opacity: 1;"  transform=" translate(-355, -274.5)" d="M 277 137 L 290 150 L 308 160 L 320 164 L 387 180 L 408 190 L 424 203 L 433 214 L 452 243 L 472 274 L 466 279 L 464 283 L 463 298 L 455 301 L 451 313 L 438 336 L 435 345 L 435 358 L 412 362 L 400 367 L 391 378 L 380 405 L 345 410 L 336 409 L 333 410 L 331 414 L 328 411 L 324 408 L 328 394 L 328 385 L 323 385 L 321 383 L 319 381 L 310 388 L 302 372 L 295 370 L 291 366 L 290 358 L 290 347 L 287 345 L 280 343 L 274 338 L 270 337 L 268 334 L 269 312 L 263 308 L 261 295 L 257 292 L 243 292 L 239 290 L 238 283 L 239 281 L 243 271 L 252 265 L 255 253 L 257 249 L 257 243 L 259 236 L 255 222 L 255 212 L 260 207 L 264 203 L 275 199 L 277 197 L 280 186 L 278 175 L 273 171 L 276 159 L 273 151 L 273 141 L 276 135 L 277 137 z" stroke-linecap="round" />
</g>
		<g transform="matrix(2.0678736662 0 0 2.0678736662 -193.3461877897 272.9593239384)" id="7MPurHgI5r4RHn4LopGob"  >
<path style="stroke: rgb(187,187,187); stroke-width: 0; stroke-dasharray: none; stroke-linecap: butt; stroke-dashoffset: 0; stroke-linejoin: miter; stroke-miterlimit: 4; fill: rgb(237,224,196); fill-rule: nonzero; opacity: 1;"  transform=" translate(-306, -482)" d="M 492 400 L 456 575 L 456 586 L 458 598 L 456 598 L 458 603 L 460 611 L 468 625 L 463 632 L 459 634 L 453 643 L 449 641 L 447 641 L 439 647 L 430 660 L 424 676 L 413 680 L 404 681 L 390 681 L 387 683 L 378 677 L 371 684 L 365 686 L 365 690 L 364 690 L 350 684 L 348 681 L 335 673 L 327 667 L 323 664 L 318 668 L 311 676 L 308 671 L 300 671 L 294 667 L 294 663 L 293 660 L 289 659 L 278 660 L 274 656 L 261 660 L 252 666 L 251 666 L 247 664 L 236 646 L 226 646 L 218 647 L 217 646 L 214 641 L 210 637 L 209 630 L 206 629 L 198 628 L 184 633 L 173 629 L 156 632 L 118 623 L 121 620 L 128 616 L 136 612 L 204 593 L 231 576 L 265 539 L 274 532 L 277 531 L 280 525 L 286 522 L 286 517 L 291 512 L 293 512 L 294 508 L 296 508 L 298 501 L 300 500 L 315 501 L 334 499 L 349 489 L 350 487 L 357 480 L 361 479 L 371 471 L 375 467 L 375 465 L 377 461 L 385 451 L 380 436 L 370 427 L 349 425 L 341 419 L 343 417 L 334 411 L 345 411 L 380 406 L 391 378 L 400 367 L 412 362 L 435 358 L 435 345 L 438 336 L 451 313 L 455 302 L 463 298 L 464 283 L 466 279 L 472 274 L 479 289 L 492 349 L 494 372 L 492 400 z" stroke-linecap="round" />
</g>
		<g transform="matrix(2.0678736662 0 0 2.0678736662 164.3959564629 -95.1221886452)" id="JWqO5ZZFlUO1_xxlJupLu"  >
<path style="stroke: rgb(187,187,187); stroke-width: 0; stroke-dasharray: none; stroke-linecap: butt; stroke-dashoffset: 0; stroke-linejoin: miter; stroke-miterlimit: 4; fill: rgb(237,224,196); fill-rule: nonzero; opacity: 1;"  transform=" translate(-479, -304)" d="M 394 42 L 397 50 L 410 61 L 410 69 L 409 79 L 410 84 L 413 88 L 431 100 L 430 103 L 441 110 L 455 99 L 466 94 L 468 90 L 473 78 L 492 62 L 497 54 L 511 53 L 518 58 L 539 59 L 532 70 L 524 91 L 516 100 L 518 107 L 510 121 L 577 176 L 582 171 L 595 170 L 602 167 L 605 162 L 613 149 L 620 145 L 637 137 L 645 134 L 649 134 L 672 138 L 677 136 L 681 132 L 679 141 L 673 149 L 673 154 L 668 163 L 659 170 L 658 175 L 659 179 L 667 185 L 673 200 L 672 205 L 663 225 L 663 234 L 662 239 L 664 247 L 667 255 L 669 260 L 672 274 L 671 284 L 666 291 L 660 295 L 654 303 L 643 306 L 629 314 L 624 324 L 613 337 L 608 341 L 602 343 L 596 353 L 599 362 L 591 367 L 588 371 L 586 377 L 588 383 L 587 386 L 579 407 L 584 415 L 581 422 L 570 430 L 560 441 L 549 445 L 545 449 L 533 455 L 525 466 L 515 472 L 512 476 L 511 483 L 506 493 L 508 496 L 506 502 L 501 503 L 495 510 L 490 510 L 486 514 L 483 513 L 481 515 L 479 514 L 473 519 L 472 524 L 472 533 L 470 537 L 468 548 L 464 556 L 463 564 L 464 590 L 460 595 L 458 598 L 457 586 L 457 575 L 459 560 L 493 395 L 494 372 L 492 349 L 479 289 L 473 277 L 466 264 L 433 214 L 424 203 L 408 190 L 387 180 L 320 164 L 308 160 L 290 150 L 277 137 L 281 129 L 290 125 L 293 122 L 295 113 L 304 101 L 306 82 L 306 58 L 310 36 L 310 27 L 316 24 L 319 25 L 327 33 L 337 42 L 340 36 L 346 33 L 350 29 L 358 25 L 359 19 L 379 10 L 385 15 L 384 16 L 385 27 L 394 42 z" stroke-linecap="round" />
</g>
</g>
</g>
<g transform="matrix(1 0 0 1 800.005 750.105)" id="TJl26aNAshE1In40qp7Uj"  >
<g style=""   >
		<g transform="matrix(0.9688198603 0 0 0.9688198603 396.6145969181 414.9761023457)" id="NNVQgS4Tn5NE6o0RCqt36"  >
<path style="stroke: none; stroke-width: 1; stroke-dasharray: none; stroke-linecap: butt; stroke-dashoffset: 0; stroke-linejoin: miter; stroke-miterlimit: 4; fill: rgb(237,224,196); fill-rule: nonzero; opacity: 1;"  transform=" translate(-1862.3399314728, -1330.259039588)" d="M 1921.3 1227.3 L 1921.52 1227.75 C 1928.497824 1241.941831 1929.3224989999999 1258.38109 1923.8 1273.2 L 1865.9199999999998 1428.51 C 1860.7476279999998 1442.380217 1847.5032539999997 1451.57792 1832.6999999999998 1451.58 L 1832.6999999999998 1451.58 C 1823.3007279999997 1451.58 1814.2864249999998 1447.8461539999998 1807.6401359999998 1441.199864 C 1800.9938469999997 1434.553574 1797.2599999999998 1425.539272 1797.2599999999998 1416.1399999999999 L 1797.2599999999998 1292.1399999999999 C 1797.2553219999998 1278.3029319999998 1803.8625619999998 1265.2965539999998 1815.0399999999997 1257.1399999999999 L 1872.4799999999998 1215.2399999999998 C 1880.3187619999999 1209.5263069999999 1890.2825019999998 1207.5703759999997 1899.6995529999997 1209.8966699999999 C 1909.1166039999996 1212.222964 1917.0234649999998 1218.5934659999998 1921.2999999999997 1227.3 Z" stroke-linecap="round" />
</g>
		<g transform="matrix(0.9688198603 0 0 0.9688198603 312.2692061116 170.2434479015)" id="BmI4I_OyVdm4QsXAe_NAx"  >
<path style="stroke: none; stroke-width: 1; stroke-dasharray: none; stroke-linecap: butt; stroke-dashoffset: 0; stroke-linejoin: miter; stroke-miterlimit: 4; fill: rgb(160,214,255); fill-rule: nonzero; opacity: 1;"  transform=" translate(-1775.2799998356, -1077.65)" d="M 1623 989.44 L 1927.56 989.44 L 1927.56 1013.58 C 1927.56 1053.967167 1911.5162599999999 1092.7001810000002 1882.9582209999999 1121.258221 C 1854.4001819999999 1149.816261 1815.6671669999998 1165.8600000000001 1775.28 1165.8600000000001 L 1775.28 1165.8600000000001 C 1734.8911 1165.8600000000001 1696.156571 1149.814888 1667.598244 1121.254685 C 1639.039917 1092.694482 1622.997348 1053.9589 1623 1013.5700000000002 L 1623 989.4400000000002 Z" stroke-linecap="round" />
</g>
		<g transform="matrix(0.9688198603 0 0 0.9688198603 312.2304534765 84.7838480245)" id="f_019fiAvmfIwLmmFi4FC"  >
<path style="stroke: none; stroke-width: 1; stroke-dasharray: none; stroke-linecap: butt; stroke-dashoffset: 0; stroke-linejoin: miter; stroke-miterlimit: 4; fill: rgb(86,48,60); fill-rule: nonzero; opacity: 1;"  transform=" translate(-152.28, -24.01)" d="M 0 24.01 C 0 10.749640000000001 68.17808 0 152.28 0 C 236.38192 0 304.56 10.74964 304.56 24.01 C 304.56 37.270360000000004 236.38192 48.02 152.28 48.02 C 68.17808 48.02 0 37.270360000000004 0 24.01 z" stroke-linecap="round" />
</g>
		<g transform="matrix(0.9688198603 0 0 0.9688198603 466.5953779554 218.7687036362)" id="ZZhCKT9XaxAH_oNlZ6emg"  >
<path style="stroke: none; stroke-width: 1; stroke-dasharray: none; stroke-linecap: butt; stroke-dashoffset: 0; stroke-linejoin: miter; stroke-miterlimit: 4; fill: rgb(180,112,47); fill-rule: nonzero; opacity: 1;"  transform=" translate(-1934.5729480582, -1127.7369745998)" d="M 2054.68 1300.16 L 1908.18 1336 L 1883.3700000000001 1184.74 C 1853.8200000000002 1184.15 1841.46 1166.53 1838.0300000000002 1149.96 L 1814.5400000000002 1036.67 C 1814.3228340000003 1035.61005 1814.5884610000003 1034.508426 1815.2648320000003 1033.6639280000002 C 1815.9412030000003 1032.8194300000002 1816.9582090000004 1032.3195960000003 1818.0400000000002 1032.3000000000002 L 1826.39 1032.17 C 1834.978399 1032.033466 1842.940611 1036.6492420000002 1847.0900000000001 1044.17 L 1862.6200000000001 1072.4 L 1877.92 1024.97 C 1879.048917 1021.47509 1878.400793 1017.6491550000001 1876.1838010000001 1014.721051 C 1873.9668090000002 1011.7929469999999 1870.4600990000001 1010.131369 1866.7900000000002 1010.27 L 1837.5100000000002 1011.36 L 1851.5100000000002 988.82 C 1856.4212080000002 980.898322 1865.0794340000002 976.07937 1874.4000000000003 976.08 L 1909.5400000000004 977.33 L 1904.2600000000004 936.3900000000001 C 1904.1755310000005 935.7435020000001 1904.1354370000004 935.0919770000002 1904.1400000000006 934.44 C 1904.1472500000007 927.0936180000001 1909.4174320000006 920.808156 1916.6500000000005 919.5200000000001 C 1917.9398520000007 919.2776090000001 1919.2137210000005 920.0122070000001 1919.6500000000005 921.2500000000001 L 1953.2600000000004 1016.8900000000001 Z" stroke-linecap="round" />
</g>
		<g transform="matrix(0.9688198603 0 0 0.9688198603 358.5674032792 142.9280982013)" id="2AxTH9bCLP1QvV-7iCD2v"  >
<path style="stroke: rgb(86,48,60); stroke-width: 4.87; stroke-dasharray: none; stroke-linecap: round; stroke-dashoffset: 0; stroke-linejoin: miter; stroke-miterlimit: 10; fill: none; fill-rule: nonzero; opacity: 1;"  transform=" translate(-1823.0682410399, -1049.4555431979)" d="M 1816.85 1039.68 C 1820.437403 1038.836516 1824.1997359999998 1040.009816 1826.671754 1042.742956 C 1829.1437720000001 1045.476096 1829.934646 1049.336963 1828.7363699999999 1052.8219390000002 C 1827.5380939999998 1056.3069150000003 1824.540114 1058.8650220000002 1820.9099999999999 1059.5000000000002" stroke-linecap="round" />
</g>
		<g transform="matrix(0.9688198603 0 0 0.9688198603 405.0579283912 179.6749092416)" id="V5-g3II7D8cq4ErkI6Dhj"  >
<line style="stroke: rgb(86,48,60); stroke-width: 5.95; stroke-dasharray: none; stroke-linecap: round; stroke-dashoffset: 0; stroke-linejoin: miter; stroke-miterlimit: 10; fill: none; fill-rule: nonzero; opacity: 1;"  x1="-7.284999999999968" y1="-14.9849999999999" x2="7.284999999999968" y2="14.9849999999999" />
</g>
		<g transform="matrix(0.9688198603 0 0 0.9688198603 449.8255581897 26.0393813118)" id="3iotTiJbeHb35zEgTVw8r"  >
<path style="stroke: rgb(86,48,60); stroke-width: 4.87; stroke-dasharray: none; stroke-linecap: round; stroke-dashoffset: 0; stroke-linejoin: miter; stroke-miterlimit: 10; fill: none; fill-rule: nonzero; opacity: 1;"  transform=" translate(-1917.2634146218, -928.8049231195)" d="M 1917.29 921.86 C 1913.29 923.41 1911.1399999999999 927.65 1912.55 931.33 C 1913.96 935.0100000000001 1918.3799999999999 936.73 1922.4099999999999 935.1800000000001" stroke-linecap="round" />
</g>
		<g transform="matrix(0.9688198603 0 0 0.9688198603 435.614506785 81.6351834785)" id="RyQ_ZlBgFrOyGrgK22E-5"  >
<path style="stroke: rgb(86,48,60); stroke-width: 5.95; stroke-dasharray: none; stroke-linecap: round; stroke-dashoffset: 0; stroke-linejoin: miter; stroke-miterlimit: 10; fill: none; fill-rule: nonzero; opacity: 1;"  transform=" translate(-1902.595, -986.19)" d="M 1935.2 998.48 C 1931.43 985.69 1920.26 977.83 1906.99 976.59 L 1869.99 973.9" stroke-linecap="round" />
</g>
		<g transform="matrix(0.9688198603 0 0 0.9688198603 509.2205956713 401.3651137747)" id="F50ovSmUVI9goN4TVEzg5"  >
<path style="stroke: none; stroke-width: 1; stroke-dasharray: none; stroke-linecap: butt; stroke-dashoffset: 0; stroke-linejoin: miter; stroke-miterlimit: 4; fill: rgb(255,175,177); fill-rule: nonzero; opacity: 1;"  transform=" translate(-1978.57, -1316.21)" d="M 2058.92 1308.41 L 2079.4300000000003 1362.68 L 1906.4600000000003 1365.3400000000001 L 1904.1100000000004 1351.5800000000002 L 1880.0700000000004 1358.2800000000002 L 1877.7100000000005 1292.9600000000003 L 2065.4500000000007 1267.0800000000002 L 2079.4300000000007 1302.69 z" stroke-linecap="round" />
</g>
		<g transform="matrix(0.9688198603 0 0 0.9688198603 479.5456433503 430.4539300802)" id="4DOCZJKuJ4y0W-4lsWFCY"  >
<path style="stroke: none; stroke-width: 1; stroke-dasharray: none; stroke-linecap: butt; stroke-dashoffset: 0; stroke-linejoin: miter; stroke-miterlimit: 4; fill: rgb(86,48,60); fill-rule: nonzero; opacity: 1;"  transform=" translate(-1947.94, -1346.235)" d="M 1991.77 1327.14 L 1904.11 1351.5800000000002 L 1906.4499999999998 1365.3300000000002 z" stroke-linecap="round" />
</g>
		<g transform="matrix(0.9688198603 0 0 0.9688198603 1.1908373272 162.1828666639)" id="yLeLIYFP-Z8tmt3KzqQws"  >
<path style="stroke: none; stroke-width: 1; stroke-dasharray: none; stroke-linecap: butt; stroke-dashoffset: 0; stroke-linejoin: miter; stroke-miterlimit: 4; fill: rgb(86,48,60); fill-rule: nonzero; opacity: 1;"  transform=" translate(-1454.19, -1069.33)" d="M 1657.79 1069.29 L 1657.6399999999999 1070.21 C 1654.27 1080.65 1593.7099999999998 1089.38 1511.6399999999999 1092.21 C 1493.4299999999998 1092.8400000000001 1474.1499999999999 1093.21 1454.2099999999998 1093.21 Q 1440.7599999999998 1093.21 1427.7399999999998 1093.01 C 1330.3499999999997 1091.53 1254.5599999999997 1082.01 1250.7399999999998 1070.25 L 1250.5899999999997 1069.33 C 1250.5899999999997 1056.1399999999999 1341.7299999999998 1045.4499999999998 1454.1599999999996 1045.4499999999998 C 1566.5899999999995 1045.4499999999998 1657.7899999999995 1056.1 1657.7899999999995 1069.2899999999997 Z" stroke-linecap="round" />
</g>
		<g transform="matrix(0.9688198603 0 0 0.9688198603 -87.0783401447 159.8480108005)" id="RFujeAmSOyrlNRxTAs4gQ"  >
<path style="stroke: none; stroke-width: 1; stroke-dasharray: none; stroke-linecap: butt; stroke-dashoffset: 0; stroke-linejoin: miter; stroke-miterlimit: 4; fill: rgb(255,255,255); fill-rule: nonzero; opacity: 1;"  transform=" translate(-11.79, -11.79)" d="M 0 11.79 C 0 5.278559999999999 5.27856 0 11.79 0 C 18.30144 0 23.58 5.27856 23.58 11.79 C 23.58 18.30144 18.30144 23.58 11.79 23.58 C 5.278559999999999 23.58 0 18.30144 0 11.79 z" stroke-linecap="round" />
</g>
		<g transform="matrix(0.9688198603 0 0 0.9688198603 19.181822133 170.9700414347)" id="sNeXUnP-79iChRpKOhyR-"  >
<path style="stroke: none; stroke-width: 1; stroke-dasharray: none; stroke-linecap: butt; stroke-dashoffset: 0; stroke-linejoin: miter; stroke-miterlimit: 4; fill: rgb(255,255,255); fill-rule: nonzero; opacity: 1;"  transform=" translate(-1472.76, -1078.3999779504)" d="M 1514.71 1095.27 C 1496.5 1095.9 1477.22 1096.27 1457.28 1096.27 C 1448.28 1096.27 1439.47 1096.2 1430.81 1096.07 C 1432.35 1076.21 1450.56 1060.53 1472.81 1060.53 C 1494.74 1060.5 1512.77 1075.78 1514.71 1095.27 Z" stroke-linecap="round" />
</g>
		<g transform="matrix(0.9688198603 0 0 0.9688198603 103.178504021 191.3249680617)" id="wnqOIZr3MIyJIakMkvk5R"  >
<path style="stroke: none; stroke-width: 1; stroke-dasharray: none; stroke-linecap: butt; stroke-dashoffset: 0; stroke-linejoin: miter; stroke-miterlimit: 4; fill: rgb(255,255,255); fill-rule: nonzero; opacity: 1;"  transform=" translate(-26.61, -24.48)" d="M 0 24.48 C 0 10.96007 11.9137 0 26.61 0 C 41.3063 0 53.22 10.96007 53.22 24.48 C 53.22 37.99993 41.3063 48.96 26.61 48.96 C 11.913699999999999 48.96 0 37.99993 0 24.48 z" stroke-linecap="round" />
</g>
		<g transform="matrix(0.9688198603 0 0 0.9688198603 1.2150578237 265.144155658)" id="2N2evyyzFK-mAPWnVokqZ"  >
<path style="stroke: none; stroke-width: 1; stroke-dasharray: none; stroke-linecap: butt; stroke-dashoffset: 0; stroke-linejoin: miter; stroke-miterlimit: 4; fill: rgb(217,175,0); fill-rule: nonzero; opacity: 1;"  transform=" translate(-1454.215, -1175.604957)" d="M 1657.64 1070.21 L 1650.45 1114.21 C 1634.743177 1210.381566 1551.6557520000001 1280.999914 1454.21 1280.999914 C 1356.764248 1280.999914 1273.676823 1210.381566 1257.97 1114.21 L 1250.79 1070.21 C 1254.56 1081.93 1330.35 1091.49 1427.79 1092.97 Q 1440.79 1093.16 1454.26 1093.17 C 1474.2 1093.17 1493.48 1092.8300000000002 1511.69 1092.17 C 1593.71 1089.38 1654.27 1080.65 1657.64 1070.21 Z" stroke-linecap="round" />
</g>
		<g transform="matrix(0.9688198603 0 0 0.9688198603 -37.7202465691 343.2542129203)" id="CQSTAaIO9N0d_oAnQDNfN"  >
<path style="stroke: none; stroke-width: 1; stroke-dasharray: none; stroke-linecap: butt; stroke-dashoffset: 0; stroke-linejoin: miter; stroke-miterlimit: 4; fill: rgb(180,112,47); fill-rule: nonzero; opacity: 1;"  transform=" translate(-1414.0266161855, -1256.2288794267)" d="M 1238.22 1412.72 L 1238.22 1295.54 C 1238.222383 1260.5539449999999 1251.974089 1226.97019 1276.51 1202.03 L 1375.43 1101.48 C 1376.612849 1100.273703 1378.2621920000001 1099.642018 1379.948229 1099.749556 C 1381.634266 1099.857094 1383.1899910000002 1100.693202 1384.21 1102.04 L 1384.6000000000001 1102.55 C 1390.066843 1109.77324 1391.2136130000001 1119.383173 1387.6000000000001 1127.69 L 1375.0000000000002 1161.6100000000001 C 1373.3342600000003 1166.0775420000002 1374.2918530000002 1171.100758 1377.4843640000001 1174.6421550000002 C 1380.676875 1178.1835520000004 1385.5742360000002 1179.6551320000003 1390.19 1178.4600000000003 L 1548.8400000000001 1137.2300000000002 C 1553.8422870000002 1135.6560840000002 1559.2107280000002 1138.2137320000002 1561.14 1143.0900000000001 L 1561.23 1143.3100000000002 C 1563.265512 1148.40307 1560.95286 1154.1978890000003 1555.97 1156.4900000000002 C 1542.3600000000001 1162.7300000000002 1517.88 1173.9900000000002 1517.88 1173.9900000000002 L 1574.88 1155.1700000000003 C 1580.6568980000002 1153.2886150000004 1586.8888200000001 1156.3030640000004 1589 1162.0000000000002 L 1589.1 1162.2600000000002 C 1591.252564 1168.0478000000003 1588.515125 1174.5097350000003 1582.86 1176.9900000000002 C 1564.78 1184.9100000000003 1528.55 1200.8400000000001 1527.9799999999998 1201.0900000000001 L 1570.3799999999999 1187.9800000000002 C 1575.38239 1186.4371290000001 1580.734532 1188.9721260000003 1582.7099999999998 1193.8200000000002 L 1582.7899999999997 1194.0400000000002 C 1584.7985389999997 1198.8949980000002 1582.8507739999998 1204.484609 1578.2599999999998 1207.0400000000002 L 1511.8299999999997 1244.0400000000002 C 1510.8361969999996 1244.6071680000002 1510.3727259999996 1245.7908130000003 1510.7171819999996 1246.8819930000002 C 1511.0616379999997 1247.973173 1512.1206819999995 1248.676202 1513.2599999999995 1248.5700000000002 L 1564.0599999999995 1243.43 C 1572.1199999999994 1242.6100000000001 1574.7999999999995 1253.92 1567.2299999999996 1256.8100000000002 L 1389.0099999999995 1324.8100000000002 C 1383.8399509999995 1326.778917 1380.7797799999996 1332.1247980000003 1381.6999999999996 1337.5800000000002 L 1393.3799999999997 1407.0400000000002 Z" stroke-linecap="round" />
</g>
		<g transform="matrix(0.9688198603 0 0 0.9688198603 51.3757060907 267.164186726)" id="1LiN37wuDzQyDfedKRB_-"  >
<line style="stroke: rgb(86,48,60); stroke-width: 5.95; stroke-dasharray: none; stroke-linecap: round; stroke-dashoffset: 0; stroke-linejoin: miter; stroke-miterlimit: 10; fill: none; fill-rule: nonzero; opacity: 1;"  x1="22.230000000000018" y1="-6.9500000000000455" x2="-22.230000000000018" y2="6.9500000000000455" />
</g>
		<g transform="matrix(0.9688198603 0 0 0.9688198603 59.6397394991 293.9520558633)" id="CspZEtXz3SDnY-Cj-U5iH"  >
<line style="stroke: rgb(86,48,60); stroke-width: 5.95; stroke-dasharray: none; stroke-linecap: round; stroke-dashoffset: 0; stroke-linejoin: miter; stroke-miterlimit: 10; fill: none; fill-rule: nonzero; opacity: 1;"  x1="18.34999999999991" y1="-5.740000000000009" x2="-18.34999999999991" y2="5.740000000000009" />
</g>
		<g transform="matrix(0.9688198603 0 0 0.9688198603 -78.3840200779 202.103806621)" id="2TKGcd1M_JCwfAMe-O3om"  >
<path style="stroke: rgb(86,48,60); stroke-width: 4.87; stroke-dasharray: none; stroke-linecap: round; stroke-dashoffset: 0; stroke-linejoin: miter; stroke-miterlimit: 10; fill: none; fill-rule: nonzero; opacity: 1;"  transform=" translate(-1372.054134845, -1110.5357407089)" d="M 1378.19 1101.21 C 1382.0225030000001 1105.510791 1381.9675180000002 1112.0173810000001 1378.06288 1116.25279 C 1374.1582419999997 1120.488199 1367.677565 1121.070919 1363.08 1117.6" stroke-linecap="round" />
</g>
		<g transform="matrix(0.9688198603 0 0 0.9688198603 -125.1888679415 541.9747841994)" id="XwhL6U965xTepfUKuMIcn"  >
<path style="stroke: none; stroke-width: 1; stroke-dasharray: none; stroke-linecap: butt; stroke-dashoffset: 0; stroke-linejoin: miter; stroke-miterlimit: 4; fill: rgb(160,214,255); fill-rule: nonzero; opacity: 1;"  transform=" translate(-1323.7429370862, -1461.345)" d="M 1437 1529.52 C 1437 1545.05 1391.59 1557.65 1335.58 1557.65 C 1294.6699999999998 1557.65 1259.4099999999999 1550.93 1243.3799999999999 1541.25 C 1237.4599999999998 1537.68 1234.1599999999999 1533.71 1234.1599999999999 1529.52 L 1234.1599999999999 1431.52 L 1210.4799999999998 1431.52 L 1222.8999999999999 1365.04 L 1411.32 1390.1599999999999 L 1422.09 1431.5199999999998 L 1406 1431.5199999999998 L 1436.48 1526.5199999999998 L 1436.79 1527.5199999999998 C 1436.861995 1527.7933049999997 1436.918749 1528.0703979999998 1436.96 1528.3499999999997 C 1437.001501 1528.7385269999997 1437.014869 1529.1295459999997 1437 1529.5199999999998 Z" stroke-linecap="round" />
</g>
		<g transform="matrix(0.9688198603 0 0 0.9688198603 -108.7750609162 521.3340770757)" id="LTzZbrvWd-jrzAFQAk9Z1"  >
<path style="stroke: none; stroke-width: 1; stroke-dasharray: none; stroke-linecap: butt; stroke-dashoffset: 0; stroke-linejoin: miter; stroke-miterlimit: 4; fill: rgb(86,48,60); fill-rule: nonzero; opacity: 1;"  transform=" translate(-1340.685, -1440.04)" d="M 1405.98 1431.5 L 1269.91 1431.5 L 1411.46 1448.58 z" stroke-linecap="round" />
</g>
		<g transform="matrix(0.9688198603 0 0 0.9688198603 -425.7746863337 24.1454129683)" id="5mLjdK0tX3H6AIgpRAxS4"  >
<path style="stroke: none; stroke-width: 1; stroke-dasharray: none; stroke-linecap: butt; stroke-dashoffset: 0; stroke-linejoin: miter; stroke-miterlimit: 4; fill: rgb(86,48,60); fill-rule: nonzero; opacity: 1;"  transform=" translate(-1013.483176, -926.85)" d="M 1166.19 926.84 C 1166.2097350000001 927.019459 1166.2097350000001 927.200541 1166.19 927.38 C 1163.95 937.91 1096.45 946.38 1013.5 946.38 C 930.55 946.38 863.05 937.93 860.8199999999999 927.38 C 860.7802829999999 927.202741 860.7601629999999 927.021654 860.76 926.84 C 860.755054 926.790122 860.755054 926.739878 860.76 926.69 C 860.749801 926.647267 860.749801 926.6027330000001 860.76 926.5600000000001 C 861.93 915.9100000000001 929.86 907.32 1013.48 907.32 C 1097.1 907.32 1165.03 915.9100000000001 1166.21 926.5600000000001 C 1166.215335 926.6031690000001 1166.215335 926.646831 1166.21 926.69 Z" stroke-linecap="round" />
</g>
		<g transform="matrix(0.9688198603 0 0 0.9688198603 -504.9064064601 -15.7040842904)" id="2Yb5YU5EfEtyX30vmYIgr"  >
<path style="stroke: none; stroke-width: 1; stroke-dasharray: none; stroke-linecap: butt; stroke-dashoffset: 0; stroke-linejoin: miter; stroke-miterlimit: 4; fill: rgb(217,175,0); fill-rule: nonzero; opacity: 1;"  transform=" translate(-931.8047088898, -885.7180012749)" d="M 998.91 947.49 C 1008.7099999999999 965.25 1002.81 987.22 985.68 996.11 C 969.7399999999999 1004.38 949.4499999999999 998.11 939.68 981.79 C 931.5999999999999 968.3199999999999 932.8299999999999 952.14 941.3199999999999 941.06 C 944.038919 937.360816 944.324983 932.4075979999999 942.05 928.42 L 860.86 781.25 C 859.13 778.12 859.97 774.14 862.86 772.45 C 864.356338 771.6404620000001 866.115555 771.4673280000001 867.740998 771.969635 C 869.366441 772.471942 870.721267 773.6074020000001 871.5 775.12 L 952.71 922.3199999999999 C 954.8519170000001 926.393567 959.2112060000001 928.8031649999999 963.8000000000001 928.4499999999999 C 977.46 926.9999999999999 991.5500000000001 934.14 998.9100000000001 947.4899999999999 Z" stroke-linecap="round" />
</g>
		<g transform="matrix(0.9688198603 0 0 0.9688198603 -425.8116720007 104.184465727)" id="ZRZwBvJZLzldCFK68PWmf"  >
<path style="stroke: none; stroke-width: 1; stroke-dasharray: none; stroke-linecap: butt; stroke-dashoffset: 0; stroke-linejoin: miter; stroke-miterlimit: 4; fill: rgb(255,175,177); fill-rule: nonzero; opacity: 1;"  transform=" translate(-1013.445, -1009.465)" d="M 1166.14 927.38 L 1164 951.24 C 1158.42 1030.24 1129 1091.55 1013.4300000000001 1091.55 C 880.8800000000001 1091.55 868.4300000000001 1030.28 862.8600000000001 951.24 L 860.7500000000001 927.38 C 862.9800000000001 937.91 930.4800000000001 946.38 1013.4300000000001 946.38 C 1096.38 946.38 1163.9 937.91 1166.14 927.38 Z" stroke-linecap="round" />
</g>
		<g transform="matrix(0.9688198603 0 0 0.9688198603 -500.5650002027 237.9874036634)" id="Wympk8zB4PMWdQcIk3wi0"  >
<path style="stroke: none; stroke-width: 1; stroke-dasharray: none; stroke-linecap: butt; stroke-dashoffset: 0; stroke-linejoin: miter; stroke-miterlimit: 4; fill: rgb(180,112,47); fill-rule: nonzero; opacity: 1;"  transform=" translate(-936.2858383589, -1147.5742021534)" d="M 1046.08 1142.28 L 1046.08 1309.65 C 1046.08 1327.5800000000002 1015.27 1347.27 976.8 1353.8400000000001 C 939.31 1360.2300000000002 908.24 1351.8400000000001 905.63 1334.9700000000003 L 917.63 1166.2300000000002 L 839.72 1105.6800000000003 C 830.175771 1096.9032310000002 825.353438 1084.1240480000004 826.72 1071.2300000000002 C 830.7900000000001 1032.6800000000003 839.38 965.2300000000002 841.72 943.3400000000003 C 841.871879 941.9731380000003 842.616044 940.7418180000003 843.755581 939.9718600000002 C 844.895118 939.2019020000001 846.3151790000001 938.9709080000002 847.64 939.3400000000003 L 847.9499999999999 939.4300000000003 C 859.1967169999999 942.5575740000003 867.4845349999999 952.1052980000003 868.9999999999999 963.6800000000003 L 879.1899999999999 1027.8600000000004 C 879.67108 1031.5120160000004 881.5185029999999 1034.8459540000003 884.3599999999999 1037.1900000000003 L 893.5899999999999 1044.7800000000002 C 890.5921559999999 1042.0009650000002 888.8888249999999 1038.0977990000001 888.8899999999999 1034.0100000000002 L 888.8899999999999 1026.3300000000002 C 888.8872189999998 1024.4272280000002 889.8440499999999 1022.6513240000002 891.4346579999999 1021.6070470000002 C 893.0252659999999 1020.5627700000002 895.0351979999999 1020.3909130000002 896.7799999999999 1021.1500000000002 L 994.4699999999998 1063.5600000000002 C 1025.8145659999998 1077.1811160000002 1046.0878989999999 1108.1037430000001 1046.0799999999997 1142.2800000000002 Z" stroke-linecap="round" />
</g>
		<g transform="matrix(0.9688198603 0 0 0.9688198603 -516.367264343 160.6279107881)" id="SOhosFEM3Kx5SUGgib22p"  >
<line style="stroke: rgb(86,48,60); stroke-width: 5.95; stroke-dasharray: none; stroke-linecap: round; stroke-dashoffset: 0; stroke-linejoin: miter; stroke-miterlimit: 10; fill: none; fill-rule: nonzero; opacity: 1;"  x1="-28.814999999999998" y1="-22.334999999999923" x2="28.814999999999998" y2="22.334999999999923" />
</g>
		<g transform="matrix(0.9688198603 0 0 0.9688198603 -587.020742602 51.7506358271)" id="ZImQczYF9BEnnIyInra_i"  >
<path style="stroke: rgb(86,48,60); stroke-width: 4.87; stroke-dasharray: none; stroke-linecap: round; stroke-dashoffset: 0; stroke-linejoin: miter; stroke-miterlimit: 10; fill: none; fill-rule: nonzero; opacity: 1;"  transform=" translate(-847.0476363546, -955.3436591311)" d="M 843.4 945 C 847.160124 945.300311 850.459869 947.620603 852.01446 951.057457 C 853.569051 954.494311 853.132779 958.504514 850.875507 961.526673 C 848.6182349999999 964.548832 844.8967379999999 966.105278 841.16 965.5899999999999" stroke-linecap="round" />
</g>
		<g transform="matrix(0.9688198603 0 0 0.9688198603 -529.5797098963 124.7963153596)" id="0Obj5FPrvrrVMLQS3oqm6"  >
<path style="stroke: rgb(86,48,60); stroke-width: 4.87; stroke-dasharray: none; stroke-linecap: round; stroke-dashoffset: 0; stroke-linejoin: miter; stroke-miterlimit: 10; fill: none; fill-rule: nonzero; opacity: 1;"  transform=" translate(-906.3373299906, -1030.7402137701)" d="M 917.15 1031.71 C 915.578031 1035.413058 912.149915 1037.996189 908.156988 1038.486353 C 904.164061 1038.976517 900.212946 1037.299247 897.791988 1034.086353 C 895.3710299999999 1030.873459 894.848031 1026.613058 896.42 1022.91" stroke-linecap="round" />
</g>
		<g transform="matrix(0.9688198603 0 0 0.9688198603 -464.0655241847 383.7286498333)" id="Q1SlEAWnH2qmw4qmtgpVS"  >
<path style="stroke: none; stroke-width: 1; stroke-dasharray: none; stroke-linecap: butt; stroke-dashoffset: 0; stroke-linejoin: miter; stroke-miterlimit: 4; fill: rgb(217,175,0); fill-rule: nonzero; opacity: 1;"  transform=" translate(-973.96, -1298.0059306326)" d="M 1055 1361 L 1055.2 1366 C 1051.8700000000001 1382.14 1009.1 1387.54 964.1500000000001 1378.29 C 920.1500000000001 1369.23 885.6800000000001 1349.07 887.3000000000001 1333.08 L 887.3000000000001 1333.08 L 887.46 1332.08 L 887.46 1332.08 L 899.57 1252.08 L 880.9200000000001 1248.3899999999999 L 895.5400000000001 1213.2099999999998 L 1062.8100000000002 1241.2099999999998 L 1067.0000000000002 1285.2099999999998 L 1051.7800000000002 1282.2099999999998 Z" stroke-linecap="round" />
</g>
		<g transform="matrix(0.9688198603 0 0 0.9688198603 -423.3169608605 371.1427782327)" id="Gt8HEphSOtcEneofcq0sP"  >
<path style="stroke: none; stroke-width: 1; stroke-dasharray: none; stroke-linecap: butt; stroke-dashoffset: 0; stroke-linejoin: miter; stroke-miterlimit: 4; fill: rgb(86,48,60); fill-rule: nonzero; opacity: 1;"  transform=" translate(-1016.02, -1285.015)" d="M 1051.76 1282.13 L 979.46 1267.8200000000002 L 1052.58 1302.2100000000003 z" stroke-linecap="round" />
</g>
		<g transform="matrix(0.9688198603 0 0 0.9688198603 47.7668521111 -386.5421699122)" id="YQKBnrgHDmEIWe5nlyTgb"  >
<line style="stroke: rgb(86,48,60); stroke-width: 7.27; stroke-dasharray: none; stroke-linecap: round; stroke-dashoffset: 0; stroke-linejoin: miter; stroke-miterlimit: 10; fill: none; fill-rule: nonzero; opacity: 1;"  x1="109.33499999999992" y1="253.60499999999996" x2="-109.33499999999992" y2="-253.60499999999996" />
</g>
		<g transform="matrix(0.9688198603 0 0 0.9688198603 78.3332258017 -91.9014471488)" id="1tq_GMAVSKw67YnqgKXAn"  >
<path style="stroke: none; stroke-width: 1; stroke-dasharray: none; stroke-linecap: butt; stroke-dashoffset: 0; stroke-linejoin: miter; stroke-miterlimit: 4; fill: rgb(160,214,255); fill-rule: nonzero; opacity: 1;"  transform=" translate(-1533.8151105449, -807.0683307006)" d="M 1636.82 807.08 C 1636.8122859999999 855.9896490000001 1602.409809 898.149387 1554.4956849999999 907.967255 C 1506.5815609999997 917.785123 1458.3702039999998 892.553416 1439.127049 847.588376 C 1419.883894 802.6233360000001 1434.9160809999998 750.326039 1475.098718 722.442181 C 1515.281355 694.558323 1569.532322 698.778097 1604.92 732.54 C 1625.296767 751.9806219999999 1636.824442 778.917074 1636.8200000000002 807.0799999999999 Z" stroke-linecap="round" />
</g>
		<g transform="matrix(0.9688198603 0 0 0.9688198603 65.3336052535 -118.7192443954)" id="AF1bPF-o1jlf0ll6sreyg"  >
<path style="stroke: none; stroke-width: 1; stroke-dasharray: none; stroke-linecap: butt; stroke-dashoffset: 0; stroke-linejoin: miter; stroke-miterlimit: 4; fill: rgb(86,48,60); fill-rule: nonzero; opacity: 1;"  transform=" translate(-1520.3971150218, -779.3874393961)" d="M 1542.59 841.39 C 1503.06 859.97 1461.26 858.76 1436.49 841 C 1420.739522 796.038195 1437.878766 746.141795 1477.933273 720.3488130000001 C 1517.9877800000002 694.5558310000001 1570.504302 699.597609 1604.92 732.5400000000001 C 1605.04 732.7900000000001 1605.16 733.0300000000001 1605.27 733.2800000000001 C 1622 768.83 1593.93 817.2400000000001 1542.59 841.3900000000001 Z" stroke-linecap="round" />
</g>
		<g transform="matrix(0.9688198603 0 0 0.9688198603 18.1742491548 32.7846459797)" id="zW9u0cWJdnzv7aXVMfjow"  >
<path style="stroke: none; stroke-width: 1; stroke-dasharray: none; stroke-linecap: butt; stroke-dashoffset: 0; stroke-linejoin: miter; stroke-miterlimit: 4; fill: rgb(255,255,255); fill-rule: nonzero; opacity: 1;"  transform=" translate(-1471.7199996661, -935.7672748881)" d="M 1389.16 857.54 C 1389.1563700000002 829.539897 1403.95224 803.62316 1428.0659170000001 789.391632 C 1452.1795940000002 775.1601039999999 1482.0193840000002 774.7335499999999 1506.5300000000002 788.27 L 1554.2800000000002 827.1999999999999 C 1541.0400000000002 839.7499999999999 1513.0200000000002 843.7299999999999 1501.3400000000001 848.6299999999999 C 1490.5400000000002 853.1599999999999 1483.5400000000002 866.5399999999998 1483.5400000000002 878.2499999999999 L 1483.5400000000002 1091.7299999999998 C 1476.0700000000002 1091.7299999999998 1468.7000000000003 1093.2199999999998 1461.4400000000003 1093.12 C 1435.5800000000004 1092.7199999999998 1411.1800000000003 1093.12 1389.1700000000003 1091.77 Z" stroke-linecap="round" />
</g>
		<g transform="matrix(0.9688198603 0 0 0.9688198603 -73.7861316614 15.769965276)" id="drjBE4STm0sVRhB5lNtUw"  >
<line style="stroke: rgb(255,255,255); stroke-width: 4.91; stroke-dasharray: none; stroke-linecap: round; stroke-dashoffset: 0; stroke-linejoin: miter; stroke-miterlimit: 10; fill: none; fill-rule: nonzero; opacity: 1;"  x1="0" y1="-36.89500000000004" x2="0" y2="36.89500000000004" />
</g>
		<g transform="matrix(0.9688198603 0 0 0.9688198603 209.1718695434 -402.3707723883)" id="MOCcK8G-r8bzhrU7rbDA-"  >
<path style="stroke: none; stroke-width: 1; stroke-dasharray: none; stroke-linecap: butt; stroke-dashoffset: 0; stroke-linejoin: miter; stroke-miterlimit: 4; fill: rgb(180,112,47); fill-rule: nonzero; opacity: 1;"  transform=" translate(-1668.8646167567, -486.606975642)" d="M 1958.78 427.32 L 1597.25 316.57 C 1583.273579 312.298762 1568.55582 311.010958 1554.05 312.79 L 1405.11 331.14000000000004 C 1401.116971 331.62886900000007 1397.690453 334.21626200000003 1396.1272379999998 337.92296300000004 C 1394.5640229999997 341.62966400000005 1395.102927 345.88938300000007 1397.5399999999997 349.09000000000003 L 1397.5399999999997 349.09000000000003 C 1406.3540559999997 360.675108 1419.7129299999997 367.924364 1434.2299999999998 369.00000000000006 L 1506.6099999999997 374.37000000000006 C 1508.0129369999997 374.41466700000007 1509.1973579999997 375.4261430000001 1509.4610989999996 376.8047900000001 C 1509.7248399999996 378.1834370000001 1508.9973879999995 379.5606620000001 1507.7099999999996 380.12000000000006 L 1421.5199999999995 422.12000000000006 L 1426.1199999999994 404.34000000000003 C 1427.3570659999993 399.54886500000003 1426.3077129999995 394.45493400000004 1423.2777689999994 390.54280500000004 C 1420.2478249999992 386.63067600000005 1415.5782629999994 384.34059800000006 1410.6299999999994 384.34000000000003 L 1410.6299999999994 384.34000000000003 C 1404.8135059999995 384.34091400000005 1399.4282469999994 387.407889 1396.4599999999994 392.41 L 1371.3599999999994 434.70000000000005 C 1363.0518109999994 448.69261100000006 1366.0993299999996 466.64334500000007 1378.5599999999995 477.11 L 1485.2599999999995 566.74 C 1505.1773849999995 583.467884 1532.8745539999995 587.412433 1556.6699999999996 576.91 L 1665.6699999999996 528.77 L 1902.7699999999995 661.2 C 1902.7699999999995 661.2 2005.6799999999996 564.1 1958.7799999999995 427.32000000000005 Z" stroke-linecap="round" />
</g>
		<g transform="matrix(0.9688198603 0 0 0.9688198603 -35.6367670888 -423.7593848456)" id="u3R1m4lPXrOflDRtVAPAp"  >
<path style="stroke: rgb(86,48,60); stroke-width: 6.15; stroke-dasharray: none; stroke-linecap: round; stroke-dashoffset: 0; stroke-linejoin: miter; stroke-miterlimit: 10; fill: none; fill-rule: nonzero; opacity: 1;"  transform=" translate(-1416.1771495981, -464.53)" d="M 1424.31 423.5 L 1409.1799999999998 483.2 C 1406.83 493.40999999999997 1407.7199999999998 498.82 1415.7399999999998 505.56" stroke-linecap="round" />
</g>
		<g transform="matrix(0.9688198603 0 0 0.9688198603 5.6967184712 -426.3569760435)" id="1KDAfThBpckJiUgSb6tWv"  >
<path style="stroke: rgb(86,48,60); stroke-width: 6.15; stroke-dasharray: none; stroke-linecap: round; stroke-dashoffset: 0; stroke-linejoin: miter; stroke-miterlimit: 10; fill: none; fill-rule: nonzero; opacity: 1;"  transform=" translate(-1458.8408967545, -461.8488088887)" d="M 1415.74 505.56 C 1410.816387 501.424905 1408.071286 495.252854 1408.297846 488.827152 C 1408.5244059999998 482.40145 1411.697383 476.438061 1416.8999999999999 472.66 L 1488.4399999999998 420.66 C 1492.8159099999998 417.48116100000004 1498.6875609999997 417.29098600000003 1503.2599999999998 420.18 L 1503.2599999999998 420.18 C 1506.3571809999999 422.141718 1508.4989859999998 425.303159 1509.1723299999999 428.906972 C 1509.845674 432.510785 1508.989895 436.232302 1506.81 439.18 L 1491.81 459.26" stroke-linecap="round" />
</g>
		<g transform="matrix(0.9688198603 0 0 0.9688198603 37.5959773389 -404.735025683)" id="P2LwHOyJx4qss99n2Y6RC"  >
<path style="stroke: rgb(86,48,60); stroke-width: 6.15; stroke-dasharray: none; stroke-linecap: round; stroke-dashoffset: 0; stroke-linejoin: miter; stroke-miterlimit: 10; fill: none; fill-rule: nonzero; opacity: 1;"  transform=" translate(-1491.7667895597, -484.1666320945)" d="M 1452.17 536.15 C 1447.0123230000002 531.8204509999999 1443.904156 525.5283049999999 1443.600105 518.8011819999999 C 1443.296054 512.0740589999999 1445.823927 505.52717699999994 1450.57 500.74999999999994 L 1514.28 436.61999999999995 C 1519.363478 431.49513799999994 1527.376246 430.7178109999999 1533.35 434.7699999999999 L 1533.35 434.7699999999999 C 1539.988044 439.2518159999999 1541.933951 448.1580839999999 1537.77 454.99999999999994 L 1498.94 519" stroke-linecap="round" />
</g>
		<g transform="matrix(0.9688198603 0 0 0.9688198603 61.98075746 -365.8609769155)" id="FuD6FmkHUsrEaOSWegWno"  >
<path style="stroke: rgb(86,48,60); stroke-width: 6.15; stroke-dasharray: none; stroke-linecap: round; stroke-dashoffset: 0; stroke-linejoin: miter; stroke-miterlimit: 10; fill: none; fill-rule: nonzero; opacity: 1;"  transform=" translate(-1516.9363604163, -524.2917888553)" d="M 1491 568.8 C 1485.715565 564.346043 1482.426951 557.9674769999999 1481.863739 551.079388 C 1481.3005269999999 544.1912990000001 1483.509284 537.363233 1488 532.11 L 1528.72 484.43 C 1532.958527 479.487174 1540.150846 478.336403 1545.72 481.71 L 1545.72 481.71 C 1551.3731930000001 485.16193499999997 1553.627821 492.245474 1551.01 498.33 L 1525.01 558.85" stroke-linecap="round" />
</g>
		<g transform="matrix(0.9688198603 0 0 0.9688198603 -34.0931698215 -544.5103137192)" id="6WdcUP7VuoUIpeEDJALiZ"  >
<path style="stroke: rgb(86,48,60); stroke-width: 6.15; stroke-dasharray: none; stroke-linecap: round; stroke-dashoffset: 0; stroke-linejoin: miter; stroke-miterlimit: 10; fill: none; fill-rule: nonzero; opacity: 1;"  transform=" translate(-1417.7704254283, -339.8928679369)" d="M 1432.8 331.43 C 1433.423429 336.817565 1431.125268 342.128476 1426.7712139999999 345.362163 C 1422.4171599999997 348.59585000000004 1416.6686969999998 349.26104100000003 1411.691214 347.107163 C 1406.713731 344.953285 1403.263428 340.307565 1402.6399999999999 334.92" stroke-linecap="round" />
</g>
		<g transform="matrix(0.9688198603 0 0 0.9688198603 104.5154754282 -482.2857926063)" id="_R9tAbKGLoYigbF301JL7"  >
<path style="stroke: rgb(86,48,60); stroke-width: 6.15; stroke-dasharray: none; stroke-linecap: round; stroke-dashoffset: 0; stroke-linejoin: miter; stroke-miterlimit: 10; fill: none; fill-rule: nonzero; opacity: 1;"  transform=" translate(-1560.84, -404.12)" d="M 1510.78 377.17 C 1510.78 377.17 1549.84 423.74 1610.9 431.07" stroke-linecap="round" />
</g>
		<g transform="matrix(0.9688198603 0 0 0.9688198603 223.597968557 -373.3613757128)" id="DBRkzYdYctc11PqJgCAo8"  >
<line style="stroke: rgb(86,48,60); stroke-width: 6.15; stroke-dasharray: none; stroke-linecap: round; stroke-dashoffset: 0; stroke-linejoin: miter; stroke-miterlimit: 10; fill: none; fill-rule: nonzero; opacity: 1;"  x1="-18.074999999999932" y1="12.210000000000008" x2="18.074999999999932" y2="-12.210000000000008" />
</g>
		<g transform="matrix(0.9688198603 0 0 0.9688198603 -39.9161893453 -488.8640794577)" id="mx32kri_LqLeFQryy_IK2"  >
<path style="stroke: rgb(86,48,60); stroke-width: 5.59; stroke-dasharray: none; stroke-linecap: butt; stroke-dashoffset: 0; stroke-linejoin: miter; stroke-miterlimit: 4; fill: none; fill-rule: nonzero; opacity: 1;"  transform=" translate(-9.77, -9.77)" d="M 0 9.77 C 0 4.37418 4.37418 0 9.77 0 C 15.16582 0 19.54 4.37418 19.54 9.77 C 19.54 15.16582 15.16582 19.54 9.77 19.54 C 4.37418 19.54 0 15.16582 0 9.77 z" stroke-linecap="round" />
</g>
		<g transform="matrix(0.9688198603 0 0 0.9688198603 84.2768285465 -397.3493554538)" id="oyyY9ke9jyvqCu5988GJY"  >
<path style="stroke: rgb(86,48,60); stroke-width: 5.59; stroke-dasharray: none; stroke-linecap: butt; stroke-dashoffset: 0; stroke-linejoin: miter; stroke-miterlimit: 4; fill: none; fill-rule: nonzero; opacity: 1;"  transform=" translate(-9.77, -9.77)" d="M 0 9.77 C 0 4.37418 4.37418 0 9.77 0 C 15.16582 0 19.54 4.37418 19.54 9.77 C 19.54 15.16582 15.16582 19.54 9.77 19.54 C 4.37418 19.54 0 15.16582 0 9.77 z" stroke-linecap="round" />
</g>
		<g transform="matrix(0.9688198603 0 0 0.9688198603 464.6887907926 -336.6866999011)" id="ISFAV9Lv1AtAniH_7aMAu"  >
<path style="stroke: none; stroke-width: 1; stroke-dasharray: none; stroke-linecap: butt; stroke-dashoffset: 0; stroke-linejoin: miter; stroke-miterlimit: 4; fill: rgb(217,175,0); fill-rule: nonzero; opacity: 1;"  transform=" translate(-1932.605, -554.405)" d="M 1931.72 399.19 L 1979.27 396.41 L 1975.6299999999999 712.4000000000001 L 1885.9399999999998 681.8000000000001 z" stroke-linecap="round" />
</g>
		<g transform="matrix(0.9688198603 0 0 0.9688198603 429.0555963308 -331.7021217199)" id="wdNbQaLpXzbZYxk7_KNsA"  >
<path style="stroke: none; stroke-width: 1; stroke-dasharray: none; stroke-linecap: butt; stroke-dashoffset: 0; stroke-linejoin: miter; stroke-miterlimit: 4; fill: rgb(86,48,60); fill-rule: nonzero; opacity: 1;"  transform=" translate(-1895.825, -559.55)" d="M 1919.7 464.81 L 1890.39 654.29 L 1871.95 643.99 z" stroke-linecap="round" />
</g>
		<g transform="matrix(0.9688198603 0 0 0.9688198603 11.3004725694 -470.9651325387)" id="HVyTCatbNvPbXhfu0-lLJ"  >
<line style="stroke: rgb(93,45,60); stroke-width: 7.36; stroke-dasharray: none; stroke-linecap: round; stroke-dashoffset: 0; stroke-linejoin: miter; stroke-miterlimit: 10; fill: none; fill-rule: nonzero; opacity: 1;"  x1="-6.535000000000082" y1="-15.115000000000009" x2="6.535000000000082" y2="15.115000000000009" />
</g>
		<g transform="matrix(0.9688198603 0 0 0.9688198603 82.5087323015 -305.9315134359)" id="QMHqDqJbiOAjVgkps3zj_"  >
<line style="stroke: rgb(93,45,60); stroke-width: 6.87; stroke-dasharray: none; stroke-linecap: round; stroke-dashoffset: 0; stroke-linejoin: miter; stroke-miterlimit: 10; fill: none; fill-rule: nonzero; opacity: 1;"  x1="11.204999999999927" y1="26.360000000000014" x2="-11.204999999999927" y2="-26.360000000000014" />
</g>
</g>
</g>
<g transform="matrix(1 0 0 1 879.4051136633 685.6521214706)" id="thHn65E_xgUFahsL6_AEX"  >
<g style=""   >
		<g transform="matrix(0.9688198603 0 0 0.9688198603 -36.3317783397 -394.582895229)" id="CRZKmI-gniBJ_VmA73psm"  >
<path style="stroke: rgb(86,48,60); stroke-width: 5.59; stroke-dasharray: none; stroke-linecap: butt; stroke-dashoffset: 0; stroke-linejoin: miter; stroke-miterlimit: 4; fill: none; fill-rule: nonzero; opacity: 1;"  transform=" translate(-10.92, -10.92)" d="M 0 10.92 C 0 4.88905 4.88905 0 10.92 0 C 16.95095 0 21.84 4.88905 21.84 10.92 C 21.84 16.95095 16.95095 21.84 10.92 21.84 C 4.88905 21.84 0 16.95095 0 10.92 z" stroke-linecap="round" />
</g>
		<g transform="matrix(0.9688198603 0 0 0.9688198603 -10.8711924111 -381.295530845)" id="yUrWigXQBjrBv3w6HqD-4"  >
<path style="stroke: rgb(86,48,60); stroke-width: 5.59; stroke-dasharray: none; stroke-linecap: butt; stroke-dashoffset: 0; stroke-linejoin: miter; stroke-miterlimit: 4; fill: none; fill-rule: nonzero; opacity: 1;"  transform=" translate(-9.77, -9.77)" d="M 0 9.77 C 0 4.37418 4.37418 0 9.77 0 C 15.16582 0 19.54 4.37418 19.54 9.77 C 19.54 15.16582 15.16582 19.54 9.77 19.54 C 4.37418 19.54 0 15.16582 0 9.77 z" stroke-linecap="round" />
</g>
		<g transform="matrix(0.9688198603 0 0 0.9688198603 40.3620689586 319.3922637664)" id="D_Md-QDAXoZ5Ge609FMxr"  >
<path style="stroke: rgb(86,48,60); stroke-width: 4.87; stroke-dasharray: none; stroke-linecap: butt; stroke-dashoffset: 0; stroke-linejoin: miter; stroke-miterlimit: 4; fill: none; fill-rule: nonzero; opacity: 1;"  transform=" translate(0, 0)" d="M -7.12 0 C -7.12 -3.93227 -3.93227 -7.12 0 -7.12 C 3.93227 -7.12 7.12 -3.93227 7.12 0 C 7.12 3.93227 3.93227 7.12 0 7.12 C -3.93227 7.12 -7.12 3.93227 -7.12 0 z" stroke-linecap="round" />
</g>
		<g transform="matrix(0.9688198603 0 0 0.9688198603 15.2552361333 299.1018348422)" id="lgQXNdElDunHJn5LWBFT_"  >
<path style="stroke: rgb(86,48,60); stroke-width: 4.87; stroke-dasharray: none; stroke-linecap: butt; stroke-dashoffset: 0; stroke-linejoin: miter; stroke-miterlimit: 4; fill: none; fill-rule: nonzero; opacity: 1;"  transform=" translate(-6.1, -6.1)" d="M 0 6.1 C 0 2.73106 2.73106 0 6.1 0 C 9.46894 0 12.2 2.73106 12.2 6.1 C 12.2 9.46894 9.46894 12.2 6.1 12.2 C 2.73106 12.2 0 9.46894 0 6.1 z" stroke-linecap="round" />
</g>
		<g transform="matrix(0.9688198603 0 0 0.9688198603 35.8134597145 349.3494374837)" id="rDaiSSdj67ZX5PoI8wceP"  >
<path style="stroke: rgb(86,48,60); stroke-width: 4.87; stroke-dasharray: none; stroke-linecap: butt; stroke-dashoffset: 0; stroke-linejoin: miter; stroke-miterlimit: 4; fill: none; fill-rule: nonzero; opacity: 1;"  transform=" translate(-6.1, -6.1)" d="M 0 6.1 C 0 2.73106 2.73106 0 6.1 0 C 9.46894 0 12.2 2.73106 12.2 6.1 C 12.2 9.46894 9.46894 12.2 6.1 12.2 C 2.73106 12.2 0 9.46894 0 6.1 z" stroke-linecap="round" />
</g>
		<g transform="matrix(0.9688198603 0 0 0.9688198603 27.5445822068 401.1708702791)" id="432_Yqu0uYG3VoO_sCOrn"  >
<path style="stroke: rgb(86,48,60); stroke-width: 4.33; stroke-dasharray: none; stroke-linecap: butt; stroke-dashoffset: 0; stroke-linejoin: miter; stroke-miterlimit: 4; fill: none; fill-rule: nonzero; opacity: 1;"  transform=" translate(0, 0)" d="M -4.75 0 C -4.75 -2.62335 -2.62335 -4.75 0 -4.75 C 2.62335 -4.75 4.75 -2.62335 4.75 0 C 4.75 2.62335 2.62335 4.75 0 4.75 C -2.62335 4.75 -4.75 2.62335 -4.75 0 z" stroke-linecap="round" />
</g>
</g>
</g>
</svg>