<svg id="_ëîé_1" data-name="‘ëîé_1" xmlns="http://www.w3.org/2000/svg" viewBox="0 0 2706.01 1894.21"><defs><style>.cls-1{fill:#ede0c4;}.cls-2{fill:#f5efd9;}.cls-3{fill:#fff;}.cls-11,.cls-15,.cls-16,.cls-17,.cls-18,.cls-19,.cls-20,.cls-21,.cls-23,.cls-24,.cls-25,.cls-4,.cls-6,.cls-7,.cls-8,.cls-9{fill:none;}.cls-4,.cls-7{stroke:#d9af00;}.cls-11,.cls-15,.cls-16,.cls-17,.cls-20,.cls-21,.cls-24,.cls-25,.cls-4,.cls-9{stroke-linecap:round;}.cls-11,.cls-16,.cls-17,.cls-19,.cls-21,.cls-23,.cls-24,.cls-25,.cls-4,.cls-6,.cls-7,.cls-8{stroke-miterlimit:10;}.cls-11,.cls-4,.cls-6,.cls-7,.cls-8,.cls-9{stroke-width:5.41px;}.cls-5{fill:#a0d6ff;}.cls-6{stroke:#e2ad00;}.cls-11,.cls-17,.cls-19,.cls-23,.cls-24,.cls-25,.cls-8,.cls-9{stroke:#56303c;}.cls-15,.cls-18,.cls-20,.cls-9{stroke-linejoin:round;}.cls-10{fill:#56303c;}.cls-12{fill:#b4702f;}.cls-13{fill:#d9af00;}.cls-14{fill:#ffafb1;}.cls-15,.cls-18,.cls-20{stroke:#fff;}.cls-15{stroke-width:10.38px;}.cls-16{stroke:#5d2d3c;stroke-width:5.19px;}.cls-17,.cls-23{stroke-width:10.82px;}.cls-18,.cls-20{stroke-width:8.66px;}.cls-19,.cls-21,.cls-25{stroke-width:8.12px;}.cls-21{stroke:#b4702f;}.cls-22{fill:#5d2d3c;}.cls-24{stroke-width:4.33px;}</style></defs><g id="LANDSCAPE"><path class="cls-1" d="M2197.09,1549.19H565.35L773.1,702C867,491.63,1078,345,1323.19,345s456.22,146.61,550.09,357a.11.11,0,0,1,0,.07Z"/><path class="cls-2" d="M1174,998.32h46.58l379.64,49c20.21,3.57,23.49,28.12,4.68,36.33l-335.49,161.71c-61.44,35.61-47.37,120.4,21.88,136.13l738.29,167.7H825.26l-4-5.42C713.4,1395.52,751.94,1219,931.39,1181.3l549.35-110.89c7.44-1.51,7.39-12.16-.07-13.58Z"/><ellipse class="cls-2" cx="1532.47" cy="833.24" rx="90.12" ry="159.59"/><path class="cls-2" d="M1827.88,998.32H1639.46c0-25.51,27.57-46.19,61.58-46.19a80.33,80.33,0,0,1,18,2c11.29-15.14,28.27-24.77,47.27-24.77C1800.31,929.37,1827.88,960.24,1827.88,998.32Z"/><circle class="cls-3" cx="1236.29" cy="598.38" r="116.88" transform="translate(-61.02 1049.45) rotate(-45)"/><path class="cls-2" d="M1233.22,664.19H958.67c0-24.34,25-44.08,55.86-44.08a68.81,68.81,0,0,1,19.85,2.87c10.23-15,25.94-24.6,43.55-24.6,26.44,0,48.59,21.65,54.38,50.72,10.16-7.15,26.56-12.81,45-12.81C1208.21,636.29,1233.22,652,1233.22,664.19Z"/></g><g id="TENTS"><polyline class="cls-4" points="1344.45 787.96 1352.92 802.14 1361.69 787.96"/><polygon class="cls-3" points="1584.57 802.14 1350.51 802.14 1255.87 998.32 1489.94 998.32 1584.57 802.14"/><polygon class="cls-5" points="1682.06 998.32 1489.94 998.32 1584.57 802.14 1585.35 802.14 1682.06 998.32"/><line class="cls-6" x1="1254.34" y1="998.32" x2="1254.34" y2="977.49"/><line class="cls-7" x1="1489.06" y1="998.32" x2="1489.06" y2="977.49"/><line class="cls-8" x1="1682.36" y1="998.32" x2="1682.36" y2="977.49"/><polyline class="cls-9" points="1577.64 786.42 1586.11 800.61 1594.88 786.42"/><path class="cls-10" d="M1614.82,998.32h-68a125.33,125.33,0,0,0,67-97.07l1.06-9.18Z"/><line class="cls-8" x1="1616.35" y1="998.32" x2="1616.35" y2="892.07"/><line class="cls-8" x1="1548.85" y1="998.32" x2="1548.85" y2="896.67"/><polyline class="cls-4" points="959.39 787.96 967.86 802.14 976.63 787.96"/><polygon class="cls-3" points="1199.51 802.14 965.44 802.14 870.81 998.32 1104.88 998.32 1199.51 802.14"/><polygon class="cls-5" points="1297 998.32 1104.88 998.32 1199.51 802.14 1200.29 802.14 1297 998.32"/><line class="cls-7" x1="869.28" y1="998.32" x2="869.28" y2="977.49"/><line class="cls-7" x1="1104" y1="998.32" x2="1104" y2="977.49"/><line class="cls-8" x1="1297.29" y1="998.32" x2="1297.29" y2="977.49"/><polyline class="cls-11" points="1191.04 787.96 1199.51 802.14 1208.28 787.96"/><rect class="cls-12" x="1174.01" y="892.07" width="55.74" height="106.25"/><path class="cls-3" d="M1227.64,896.67h-51.26v-17.3h51.26a8.65,8.65,0,0,1,8.65,8.65h0A8.65,8.65,0,0,1,1227.64,896.67Z"/><circle class="cls-13" cx="1177.78" cy="888.02" r="8.65" transform="translate(42.91 1830.27) rotate(-76.72)"/></g><g id="MAN"><g id="HAND"><path class="cls-14" d="M1807.88,1174.32,1789.1,1341.1H1598.64l3.29-151.35-49.75-16.87a27.8,27.8,0,0,1-18.75-23.75l-.52-5.75a7.43,7.43,0,0,1,7.39-8.11h149.39a68.12,68.12,0,0,1,48.69,20.49l17.84,18.56Z"/><path class="cls-15" d="M1621.53,1378.27,1659,1112a65.65,65.65,0,0,1,65-56.53"/><path class="cls-14" d="M1668.3,1282.1v.59A19.28,19.28,0,0,1,1649,1302h-10.19a19.28,19.28,0,0,1,19.28,19.28v.59a19.28,19.28,0,0,1-19.28,19.27h-52.69a17.68,17.68,0,0,1-17.68-17.67v-3.79a17.69,17.69,0,0,1,17.68-17.68h-12.83a17.67,17.67,0,0,1-17.68-17.67v-3.79a17.68,17.68,0,0,1,17.68-17.68h-9.24a17.68,17.68,0,0,1-17.68-17.67v-3.79a17.69,17.69,0,0,1,17.68-17.68h-8.22a17.67,17.67,0,0,1-17.67-17.67v-3.79a17.68,17.68,0,0,1,17.67-17.68h63.65a19.29,19.29,0,0,1,19.29,19.28v.59a19.28,19.28,0,0,1-19.29,19.27h13.7a19.28,19.28,0,0,1,19.28,19.28v.59a19.28,19.28,0,0,1-19.28,19.27H1649A19.28,19.28,0,0,1,1668.3,1282.1Z"/><path class="cls-16" d="M1586.14,1302h52.69a19.28,19.28,0,0,1,19.28,19.28v.58a19.26,19.26,0,0,1-8,15.61"/><path class="cls-11" d="M1573.31,1262.82H1649a19.28,19.28,0,0,1,19.28,19.28v.59A19.28,19.28,0,0,1,1649,1302h-64.75"/><path class="cls-11" d="M1579.41,1223.68h53.79a19.28,19.28,0,0,1,19.28,19.28v.59a19.28,19.28,0,0,1-19.28,19.27H1575"/><path class="cls-11" d="M1593.13,1184.54h26.38a19.29,19.29,0,0,1,19.28,19.28v.59a19.28,19.28,0,0,1-19.28,19.27"/><circle class="cls-11" cx="1640.71" cy="1243.25" r="10.61" transform="translate(150.7 2663.63) rotate(-80.78)"/><circle class="cls-11" cx="1628.17" cy="1204.11" r="10.61" transform="translate(-374.56 1503.97) rotate(-45)"/><circle class="cls-11" cx="1647.5" cy="1321.53" r="10.61"/><circle class="cls-11" cx="1656.59" cy="1281.41" r="11.22"/><path class="cls-11" d="M1564.71,1137.58a12.64,12.64,0,1,1-25.27,0"/><path class="cls-11" d="M1652.56,1222.57c16.22,6.71,43.87,13.61,74.16,1.43"/></g><g id="HEAD"><path id="NECK" class="cls-14" d="M2122.56,812.22,1860.1,931.84l-29.27-111.6A107.49,107.49,0,0,0,1875.7,815l196.64-66.44a68.08,68.08,0,0,0,13.86-6.49Z"/><g id="HEAD-2" data-name="HEAD"><path class="cls-14" d="M2118.81,685.58a68.38,68.38,0,0,1-46.47,63L1875.7,815a107.49,107.49,0,0,1-44.87,5.26c-47.17-4.54-88.14-40.17-96.29-90L1700.35,727a22.91,22.91,0,0,1-19.66-29.78l40-125a133.26,133.26,0,0,1,100.87-110l94.79-22.61c106.22-25.34,199.56,57.67,196.63,166.83Z"/><path class="cls-17" d="M2062.89,655.13s-38.09,8.4-31.51,48.51"/><line class="cls-17" x1="2066.67" y1="689.66" x2="2040.23" y2="669.65"/><path class="cls-17" d="M1754.88,660.11s7.51-15.19,39.48,2"/><path class="cls-10" d="M1730.72,594.51H1784a24.63,24.63,0,0,1,24.63,24.63V626a0,0,0,0,1,0,0h-49.4a28.53,28.53,0,0,1-28.53-28.53v-2.93A0,0,0,0,1,1730.72,594.51Z" transform="translate(3402.38 1525.93) rotate(-169.74)"/></g><path id="HAIR" class="cls-10" d="M2118,672.62a62.58,62.58,0,0,0-71.11-51.4l-1.37.21a61.34,61.34,0,0,0-51.84,66.42l6.22,65.81a54.33,54.33,0,0,1-32.31,49.22l-167.24,74.17a45.3,45.3,0,0,1-63.63-40l-2.5-107.85c3.81-.23,7.6-.34,11.4-.34a189,189,0,0,1,110.93,36l12.45,9,57.21-21.35c35.9-18.63,32.38-48.2,30.19-81.47l-.22,0-16.35-16.12a110.59,110.59,0,0,1-24.5-121.21l3.23-7.79a85.73,85.73,0,0,1-44,17,84.66,84.66,0,0,1-58.72-16,85.84,85.84,0,0,1-42.4,15.84c-44.79,4.25-84.29-25.89-88.23-67.32s29.18-78.48,74-82.74a84.67,84.67,0,0,1,58.72,16,85.84,85.84,0,0,1,42.4-15.84c24.2-2.3,46.87,5.45,63.21,19.6a85.46,85.46,0,0,1,47.38-19.75c41.58-4,78.6,21.74,86.85,58.58l17.43-31.87a5.42,5.42,0,0,1,9.5,5.2l-19.68,36a88.54,88.54,0,0,1,51.2,79.09Z"/><path id="SMILE" class="cls-18" d="M1735.33,778.55s22.12-.46,40.89-18.75"/></g><g id="VEST"><path class="cls-13" d="M2184.05,1549.13l-452.33-.05,31.77-268.21c2.92-13.21,9.87-23.71,22.93-27.26l12.68-3.45a36.42,36.42,0,0,1-23.46-34,36.89,36.89,0,0,1,.86-7.9l43.17-195a71,71,0,0,1,25.74-40.93c2.41-25.14,15.53-52.28,36-66.84L2089,761.15c23.37-16.64,51.37-9.7,66,15l29.51,93.92a157.93,157.93,0,0,1,80.72,113l61,391.46C2338.55,1450,2260.43,1549.14,2184.05,1549.13Z"/><path class="cls-18" d="M2035.08,867.07c95.89-52.38,216.36,5.26,234.67,113"/><rect class="cls-3" x="1817.58" y="1121.14" width="120.84" height="82.57" rx="16.91"/><line class="cls-19" x1="1873.18" y1="1104.82" x2="1873.18" y2="1135.77"/><rect class="cls-5" x="1838.41" y="1148.47" width="70.57" height="12.43"/><rect class="cls-5" x="1837.89" y="1168.49" width="40.1" height="12.43"/><line class="cls-20" x1="1784.88" y1="1249.01" x2="1831.85" y2="1249.01"/></g><g id="HAND-2" data-name="HAND"><path class="cls-5" d="M2174.22,1549.19H1567.4l-4.6-161.71,443.23-78-42.45-210.89a139.85,139.85,0,0,1,136.77-168.15c60.89,0,117.66,40.2,134.8,102.95l87.09,322.56C2348.55,1453.35,2275.15,1549.19,2174.22,1549.19Z"/><polyline class="cls-21" points="2075.48 1304.83 2015.39 1305.13 2054.99 1280.17"/><path class="cls-14" d="M1351.31,1547.12a54.87,54.87,0,0,1-37.16-14.79c-36.82-34.4-95.61-85.31-111.73-101.2a5.58,5.58,0,0,1,.64-8.49l.31-.23a34.58,34.58,0,0,1,22.3-6.54c-2.22-2.79-4.17-5.22-5.79-7.22a5.57,5.57,0,0,1,1.59-8.36l.33-.19a34.6,34.6,0,0,1,38.17,2.66l62.57,45.37a17.23,17.23,0,0,0,12.19,3.5l87-10a2.86,2.86,0,0,0,.16-5.67c-18.25-3.06-44.11-9.19-61.36-12.27a31,31,0,0,1-24-20.94l-1.75-10.62,109.89-18.43c36.52-5.81,89.38-15,118.15,13.73h0c12.89,10.18,28,40.82,29.75,77.29,1.35,28.13-3.4,53.26-11.76,68.59-5.19,9.51-11.76,15.25-19.12,15.6h-.08Z"/><path class="cls-11" d="M1222.76,1408.57a12.32,12.32,0,0,1,15.45,19.2"/><path class="cls-11" d="M1362,1390.07a12.32,12.32,0,0,1-24.34,3.85"/><path class="cls-11" d="M1205.14,1429.84a12.33,12.33,0,0,1,17.57,17.29"/><line class="cls-11" x1="1238.21" y1="1427.77" x2="1293.34" y2="1501.77"/></g></g><g id="CHILD"><g id="BOWL"><path class="cls-22" d="M1337.08,1114.8c-8.64,15.76-27.89,21.77-42.67,13.17-13.75-8-18.66-26.18-11.11-41.22,6.24-12.43,18.93-19.2,31.26-18.1a10.3,10.3,0,0,0,9.8-5.45L1396,932.6a5.75,5.75,0,0,1,7.55-2.66,5.61,5.61,0,0,1,2.11,7.73L1334,1068.31a10.23,10.23,0,0,0,.69,11.21C1342.21,1089,1343.57,1103,1337.08,1114.8Z"/><path class="cls-13" d="M1396.56,1058.65c-6.62,44.47-27.45,83-56.88,110.47s-67.49,43.76-108.57,43.76c-82.15,0-152.21-65.3-165.45-154.23Z"/></g><g id="HEAD-3" data-name="HEAD"><path id="HAIR-2" data-name="HAIR" class="cls-10" d="M739.66,714.64c-24.47,0-47.19-4.42-65.94-12,12.17,17.4,19.09,37.44,19.09,58.76,0,45.46-31.49,85.07-78.09,105.82a117.37,117.37,0,0,1-54.9,90.13l-9.31,5.79-63.11-88-5.28-7.37a154.46,154.46,0,0,1-23.42-48.31c-20.08-71.25,15.54-147.73,81.15-179.34a153.1,153.1,0,0,1,66.8-15h98.7a128.8,128.8,0,0,1,114.88,70.48C799.3,707.43,770.92,714.64,739.66,714.64Z"/><path class="cls-12" d="M856.26,890.71l-22.09,12.53v64.31A42.41,42.41,0,0,1,791.76,1010h-49.4a32.05,32.05,0,0,0-30.86,23.36l-15.35,54.42H494.32l56.2-124.59,9.3-5.79a117.41,117.41,0,0,0,30.11-27h-6.39a49.62,49.62,0,1,1,45.15-70.2c38.81-22,64.12-58,64.12-98.78,0-21.32-6.92-41.36-19.09-58.76,18.75,7.57,41.47,12,65.95,12,31.25,0,59.63-7.21,80.57-19A128.27,128.27,0,0,1,834.17,754v64.6a54,54,0,0,0,10.41,31.85l15.71,21.47A12.87,12.87,0,0,1,856.26,890.71Z"/><ellipse class="cls-10" cx="783.77" cy="848.12" rx="9.47" ry="10.82"/><path class="cls-23" d="M834.17,929.19s-17.89.48-32.19-17.38"/><ellipse class="cls-10" cx="769.77" cy="800.74" rx="28.49" ry="8.43" transform="translate(-260.06 384.6) rotate(-24.13)"/><path class="cls-17" d="M610.24,884.77s-4.86-30.36-37.7-24.46"/><line class="cls-17" x1="582.2" y1="885.09" x2="596.16" y2="864.42"/><path class="cls-10" d="M756.47,1010H732.08a69.72,69.72,0,0,1-44.46-16l-7.8-6.46,24.54,71.16,5.86-20.07A39.7,39.7,0,0,1,748.1,1010Z"/></g><g id="HAND-3" data-name="HAND"><path class="cls-12" d="M880.5,1278.37l50.89-97.07c20.37-35.15,28.7-59.85,57.1-77L1103,1034.92a5.52,5.52,0,0,1,8,2.58l.24.56a23.82,23.82,0,0,1-3.11,23.83l-19.59,28.23a12.13,12.13,0,0,0,10,19.05l155.56-.78a9.47,9.47,0,0,1,9.94,8.27l0,.23a9.78,9.78,0,0,1-7.92,10.88L1217,1135l56.85-4a10.76,10.76,0,0,1,11.44,9.63l0,.26a11,11,0,0,1-9.18,12.08l-56.12,9.32,42.07-2.12a9.57,9.57,0,0,1,10,8.25l0,.22a9.81,9.81,0,0,1-7.2,10.87L1195.13,1198a2.3,2.3,0,0,0,.25,4.5l47.92,7.16c7.61,1.14,7.42,12.17-.21,13l-193,14.09a16.29,16.29,0,0,0-14.28,11.12l-25.7,77.69Z"/><line class="cls-11" x1="1231.92" y1="1134.4" x2="1183.18" y2="1139.84"/><line class="cls-11" x1="1229.45" y1="1162.02" x2="1188.4" y2="1167.06"/><circle class="cls-11" cx="1255.76" cy="1118.07" r="5.79" transform="translate(-368.98 1550.77) rotate(-56.59)"/><path class="cls-11" d="M1270,1171.54a5.79,5.79,0,1,1-4.18-7A5.78,5.78,0,0,1,1270,1171.54Z"/><circle class="cls-24" cx="1242.75" cy="1216.23" r="5.02" transform="translate(-27.97 2403.2) rotate(-87.43)"/><path class="cls-11" d="M1283.07,1143.34a6.75,6.75,0,1,1-4.88-8.21A6.75,6.75,0,0,1,1283.07,1143.34Z"/><path class="cls-11" d="M1105.62,1035.33a10.64,10.64,0,0,1-17.74,11.54"/></g><g id="BODY"><path class="cls-14" d="M1029.13,1305l-5.57,23.91-14.88-3.48-39.11,119.21a151.87,151.87,0,0,1-144.31,104.53H522.46c-78,0-135.09-73.55-115.73-149.12l73.77-287.81c17.07-47.68,66-73.28,115.36-73.28a127.47,127.47,0,0,1,116,74.59L829.18,1371l42.93-77.5-11.81-2.76L884,1240.37Z"/><path class="cls-25" d="M766.35,1549.08a115.05,115.05,0,0,1-94-48.73l-107-151.61"/><line class="cls-25" x1="829.18" y1="1368.49" x2="798.6" y2="1419.89"/><polygon class="cls-10" points="1008.68 1325.45 925.69 1306.04 1004.43 1338.41 1008.68 1325.45"/></g></g></svg>