<svg id="_ëîé_1" data-name="‘ëîé_1" xmlns="http://www.w3.org/2000/svg" viewBox="0 0 2707.33 1895.13"><defs><style>.cls-1{fill:#f7f2e1;}.cls-2{fill:#f5efd9;}.cls-3{fill:#ede0c4;}.cls-12,.cls-13,.cls-14,.cls-15,.cls-16,.cls-17,.cls-18,.cls-19,.cls-20,.cls-22,.cls-4,.cls-6{fill:none;}.cls-4,.cls-6{stroke:#d9af00;}.cls-12,.cls-13,.cls-14,.cls-16,.cls-17,.cls-18,.cls-19,.cls-20,.cls-22,.cls-4,.cls-6{stroke-linecap:round;}.cls-12,.cls-13,.cls-14,.cls-15,.cls-16,.cls-17,.cls-18,.cls-22,.cls-4,.cls-6{stroke-miterlimit:10;}.cls-4{stroke-width:3.74px;}.cls-5{fill:#fff;}.cls-6{stroke-width:2.14px;}.cls-7{fill:#d9af00;}.cls-8{fill:#a0d6ff;}.cls-9{fill:#ffafb1;}.cls-10{fill:#b4702f;}.cls-11{fill:#56303c;}.cls-12,.cls-13,.cls-14,.cls-15,.cls-17,.cls-22{stroke:#56303c;}.cls-12,.cls-18,.cls-19{stroke-width:5.17px;}.cls-13,.cls-16{stroke-width:4.13px;}.cls-14,.cls-15{stroke-width:3.98px;}.cls-16,.cls-18,.cls-19,.cls-20{stroke:#fff;}.cls-17{stroke-width:5.68px;}.cls-19,.cls-20{stroke-linejoin:round;}.cls-20{stroke-width:5.42px;}.cls-21{fill:#8bc2eb;}.cls-22{stroke-width:4.74px;}</style></defs><g id="CLOUDS"><path class="cls-1" d="M2182.18,474.15H1953.57c0-25.19,30.49-45.61,68.1-45.61a93.48,93.48,0,0,1,36.31,7,68.09,68.09,0,0,1,124.2,38.58Z"/><path class="cls-1" d="M856.27,533H552c0-27.15,27.71-49.16,61.9-49.16a75.9,75.9,0,0,1,22,3.2c11.34-16.72,28.75-27.42,48.26-27.42,29.3,0,53.84,24.13,60.26,56.55,11.26-8,29.43-14.28,49.93-14.28C828.55,501.91,856.27,519.45,856.27,533Z"/></g><g id="PLANTS"><ellipse class="cls-2" cx="805.5" cy="1450.92" rx="177.94" ry="265.62"/><path class="cls-3" d="M2188.32,1716.55c0-165.91-93.11-300.41-208-300.41s-208,134.5-208,300.41Z"/><path class="cls-3" d="M827.76,1716.55c0-102.65-84.61-185.86-189-185.86s-189,83.21-189,185.86Z"/><path class="cls-2" d="M1239.49,1716.55H846.19c37.11-67.83,111.25-114.09,196.65-114.09S1202.38,1648.72,1239.49,1716.55Z"/><path class="cls-2" d="M2051.55,1716.55h-354c33.4-67.83,100.13-114.09,177-114.09S2018.15,1648.72,2051.55,1716.55Z"/><line class="cls-4" x1="788.32" y1="1557.96" x2="788.32" y2="1716.55"/><line class="cls-4" x1="815.05" y1="1612.8" x2="788.32" y2="1647.46"/><line class="cls-4" x1="788.32" y1="1716.55" x2="739.54" y2="1669.59"/><circle class="cls-5" cx="788.32" cy="1521.11" r="26.73"/><line class="cls-6" x1="788.32" y1="1494.39" x2="788.32" y2="1547.84"/><line class="cls-6" x1="761.6" y1="1521.11" x2="815.05" y2="1521.11"/><line class="cls-6" x1="769.42" y1="1502.21" x2="807.22" y2="1540.01"/><line class="cls-6" x1="769.42" y1="1540.01" x2="807.22" y2="1502.21"/><circle class="cls-5" cx="788.32" cy="1521.11" r="9.89" transform="translate(-522.1 417.47) rotate(-22.5)"/><circle class="cls-7" cx="788.32" cy="1521.11" r="5.35"/><circle class="cls-5" cx="837.63" cy="1588.2" r="26.73"/><line class="cls-6" x1="837.63" y1="1561.47" x2="837.63" y2="1614.93"/><line class="cls-6" x1="810.9" y1="1588.2" x2="864.35" y2="1588.2"/><line class="cls-6" x1="818.73" y1="1569.3" x2="856.52" y2="1607.1"/><line class="cls-6" x1="818.73" y1="1607.1" x2="856.52" y2="1569.3"/><circle class="cls-5" cx="837.63" cy="1588.2" r="9.89" transform="translate(-900.54 2038.53) rotate(-76.72)"/><circle class="cls-7" cx="837.63" cy="1588.2" r="5.35"/><circle class="cls-5" cx="714.03" cy="1643.77" r="26.73"/><line class="cls-6" x1="714.03" y1="1617.05" x2="714.03" y2="1670.5"/><line class="cls-6" x1="687.31" y1="1643.77" x2="740.76" y2="1643.77"/><line class="cls-6" x1="695.14" y1="1624.88" x2="732.93" y2="1662.67"/><line class="cls-6" x1="695.14" y1="1662.67" x2="732.93" y2="1624.88"/><circle class="cls-5" cx="714.03" cy="1643.77" r="9.89" transform="translate(-1049.82 1961.05) rotate(-76.72)"/><circle class="cls-7" cx="714.03" cy="1643.77" r="5.35"/><line class="cls-4" x1="2008.68" y1="1611.44" x2="2008.68" y2="1714.4"/><line class="cls-4" x1="2035.41" y1="1652.64" x2="2008.68" y2="1687.3"/><circle class="cls-5" cx="2008.68" cy="1574.59" r="26.73"/><line class="cls-6" x1="2008.68" y1="1547.86" x2="2008.68" y2="1601.32"/><line class="cls-6" x1="1981.96" y1="1574.59" x2="2035.41" y2="1574.59"/><line class="cls-6" x1="1989.79" y1="1555.69" x2="2027.58" y2="1593.49"/><line class="cls-6" x1="1989.79" y1="1593.49" x2="2027.58" y2="1555.69"/><circle class="cls-5" cx="2008.68" cy="1574.59" r="9.89" transform="translate(14.71 3167.77) rotate(-76.72)"/><circle class="cls-7" cx="2008.68" cy="1574.59" r="5.35"/><circle class="cls-5" cx="2057.99" cy="1628.04" r="26.73" transform="translate(121.32 3398.67) rotate(-80.78)"/><line class="cls-6" x1="2057.99" y1="1601.32" x2="2057.99" y2="1654.77"/><line class="cls-6" x1="2031.26" y1="1628.04" x2="2084.71" y2="1628.04"/><line class="cls-6" x1="2039.09" y1="1609.14" x2="2076.89" y2="1646.94"/><line class="cls-6" x1="2039.09" y1="1646.94" x2="2076.89" y2="1609.14"/><circle class="cls-5" cx="2057.99" cy="1628.04" r="9.89" transform="translate(-466.37 911.49) rotate(-22.5)"/><circle class="cls-7" cx="2057.99" cy="1628.04" r="5.35"/><path class="cls-2" d="M2273.91,1716.55H2045.3c0-25.19,30.49-45.61,68.09-45.61a93.68,93.68,0,0,1,36.32,7,68.1,68.1,0,0,1,124.2,38.59Z"/></g><path id="MAN_S_CLOAK" data-name="MAN&apos;S CLOAK" class="cls-8" d="M1402.34,1483.93l-450.4-434.74L1412.3,572.26c120-124.38,318.19-127.88,442.57-7.83h0c124.37,120.05,127.88,318.19,7.82,442.57Z"/><g id="WOMAN"><path id="CLOAK" class="cls-9" d="M1401.52,1483.93l141.21-146.3c162.11-168,157.38-435.52-10.57-597.62L1359.33,573.18C1235,453.13,1036.81,456.63,916.76,581h0c-120,124.37-116.55,322.52,7.83,442.57Z"/><g id="LEGS"><path class="cls-10" d="M897.29,1661.46l18.15,37.84a4.29,4.29,0,0,0,7.53.38l20.18-33.16a15.41,15.41,0,0,1,13.17-7.4h.59l49.76-187.35-88.24-9.14L899.3,1650.85A62.51,62.51,0,0,1,897.29,1661.46Z"/><polygon class="cls-11" points="918.43 1462.63 1006.67 1471.77 999.78 1497.69 917.63 1470.51 918.43 1462.63"/><path class="cls-9" d="M850,1713.62h68.44a9.23,9.23,0,0,0,7.72-4.18l12.69-21.75a6,6,0,0,1,10.79,1.35l8.4,24.58h8.47l5.85-31a25.61,25.61,0,0,0-15.42-23.49h-.59a15.41,15.41,0,0,0-13.17,7.4L923,1699.68a4.29,4.29,0,0,1-7.53-.38l-18.15-37.84a63,63,0,0,1-33.51,39.9l-15,7.15A2.69,2.69,0,0,0,850,1713.62Z"/><line class="cls-12" x1="923.73" y1="1713.62" x2="845.92" y2="1713.62"/><line class="cls-12" x1="966.48" y1="1713.62" x2="958.01" y2="1713.62"/><line class="cls-12" x1="956.32" y1="1657.65" x2="896.59" y2="1657.65"/><path class="cls-10" d="M1252.44,1661.46l-18.15,37.84a4.29,4.29,0,0,1-7.53.38l-20.18-33.16a15.41,15.41,0,0,0-13.17-7.4h-.59l-49.76-187.35,88.24-9.14,19.13,188.22A62.51,62.51,0,0,0,1252.44,1661.46Z"/><polygon class="cls-11" points="1231.3 1462.63 1143.06 1471.77 1149.94 1497.69 1232.14 1470.9 1231.3 1462.63"/><path class="cls-9" d="M1299.76,1713.62h-68.44a9.23,9.23,0,0,1-7.72-4.18l-12.69-21.75a6,6,0,0,0-10.79,1.35l-8.4,24.58h-8.47l-5.85-31a25.61,25.61,0,0,1,15.42-23.49h.59a15.41,15.41,0,0,1,13.17,7.4l20.18,33.16a4.29,4.29,0,0,0,7.53-.38l18.15-37.84a63,63,0,0,0,33.51,39.9l15,7.15A2.69,2.69,0,0,1,1299.76,1713.62Z"/><line class="cls-12" x1="1225.04" y1="1713.62" x2="1304.23" y2="1713.62"/><line class="cls-12" x1="1183.25" y1="1713.62" x2="1191.72" y2="1713.62"/><line class="cls-12" x1="1192.82" y1="1657.65" x2="1252.44" y2="1657.65"/></g><g id="PANTS"><path class="cls-7" d="M1267.82,1456.53a1041.15,1041.15,0,0,1-158.61,16.81L1070.93,1164l-34.47,309.31c-97-3-162.43-16.81-162.43-16.81l100.52-600.4a63.43,63.43,0,0,1,62.7-53l77.43.17a63.44,63.44,0,0,1,62.58,53.95Z"/><path class="cls-13" d="M1158.65,822.38c-11.17,12.93-42.86,21-83.1,21-39.64,0-71.5-8.66-83.33-21.6"/><path class="cls-13" d="M1176.37,886a47.62,47.62,0,0,1-47.58-45.81"/><path class="cls-13" d="M973.58,886a47.62,47.62,0,0,0,47.58-45.81"/><path class="cls-13" d="M1105.86,1446.3s87-5.56,157.87-16.82"/><path class="cls-13" d="M1039.47,1444.83s-106-1.67-160.48-17.94"/></g><g id="BODY"><path class="cls-3" d="M977.85,702.5c-16.07-18.4-23.85-36.76-21.5-61.08L958,624.9l-89.62,75.78,83.74,76A42.18,42.18,0,0,1,896.3,840L788.68,747.9a58.83,58.83,0,0,1-3.68-86L902.94,548c28-28.43,60.32-44.49,100.21-44.59l134.16-.32c44.73-.11,82,14,109.45,56.55l30.48-.34c31.25-.35,47.65,28,41.78,58.71L1299.7,757.13a41.93,41.93,0,0,1-81.8,2.56l-32.2-84.4a3.63,3.63,0,0,0-7,.81L1163,792.63c0,19-37,31.73-87.45,31.73s-88.3-14-88.3-33.06Z"/><path class="cls-13" d="M1222.63,685.6V587.83a29.31,29.31,0,0,1,30.25-29.3"/><path class="cls-5" d="M1136.34,649l-20.28-20.33a12.31,12.31,0,1,1,20.28-13,12.39,12.39,0,0,1,5.6-6.51,12.31,12.31,0,0,1,14.69,19.46Z"/><line class="cls-13" x1="871.26" y1="700.68" x2="854.62" y2="686.71"/></g><g id="HEAD"><ellipse class="cls-11" cx="1145.04" cy="373.73" rx="35.86" ry="27.93"/><ellipse class="cls-11" cx="1091.8" cy="402.99" rx="62.29" ry="57.19"/><circle class="cls-11" cx="996.94" cy="395.3" r="44.71" transform="matrix(0.38, -0.92, 0.92, 0.38, 250.22, 1165.08)"/><circle class="cls-11" cx="927.79" cy="395.3" r="44.71" transform="translate(207.53 1101.19) rotate(-67.5)"/><path class="cls-11" d="M871.87,382.31h11.66a0,0,0,0,1,0,0V394a14.33,14.33,0,0,1-14.33,14.33H857.54a0,0,0,0,1,0,0V396.64A14.33,14.33,0,0,1,871.87,382.31Z" transform="translate(534.49 -499.78) rotate(45)"/><path class="cls-10" d="M1154.31,410.08a14.23,14.23,0,0,0,9,12.1,3.18,3.18,0,0,1,.14,5.38l-9,6,.22,22.79a11,11,0,0,1-11,11.19H1127.5V515l-46.74,56.4L1022.91,515l42.22-73a14.3,14.3,0,0,1-14.29-14.3v-1.89a17.36,17.36,0,0,1,33.84-5.49l.59,1.76s22.73-5.85,31.18-27.29a34,34,0,0,0,1.55-21.32l8.4.81a30.66,30.66,0,0,1,27.7,30.2Z"/><ellipse class="cls-11" cx="1136.16" cy="415.12" rx="3" ry="4.48"/><path class="cls-14" d="M1126.81,405.39s6.4-4.19,12.8-3.94"/><path class="cls-14" d="M1076.55,427.41s-2.57-9.76-12.71-6.94"/><line class="cls-14" x1="1067.71" y1="426.9" x2="1071.54" y2="421.86"/><path class="cls-15" d="M1154.41,443.32s-8.72.21-11.27-6.43"/><path class="cls-11" d="M1127.5,467.52s-14.3-1.3-23.39-11l23.39,30.25Z"/></g><g id="HAND"><path class="cls-10" d="M1027.7,833.32l-13.21,16.33a8.8,8.8,0,0,1-12.07,1.53L998.19,848a16.71,16.71,0,0,0-19.88,0l-4.73,3.49c-8.58,6.85-27.43.16-30.65-11.91-1.85-7-1.69-14.15,2.68-23.26,4.51-9.41,9.41-13.23,19.85-13.45L982,801a15.08,15.08,0,0,1,9.94,2.31l34.52,22.31A5.27,5.27,0,0,1,1027.7,833.32Z"/><line class="cls-13" x1="1001.19" y1="825.24" x2="1021.39" y2="838.6"/><line class="cls-13" x1="1006.6" y1="818.56" x2="1026.79" y2="831.92"/><line class="cls-13" x1="993.97" y1="832.83" x2="1015.05" y2="846.03"/></g><g id="CLOAK-2" data-name="CLOAK"><path class="cls-9" d="M1039.23,486.73h0c-24.62,0-81.43,16.36-96.51,29.62l7-1.43A94.05,94.05,0,0,1,1023,530.37l57.79,41L1041,532.62a32.52,32.52,0,0,1-5.45-39.59Z"/><path class="cls-9" d="M1080.76,571.35l34.14-41.2a54.78,54.78,0,0,0,12.6-34.94v-8.48l81,24-4.41-.53a94.86,94.86,0,0,0-69.34,19.21Z"/><path class="cls-13" d="M949.74,514.92A94.05,94.05,0,0,1,1023,530.37l57.79,41"/><path class="cls-13" d="M1184,510a94.83,94.83,0,0,0-49.17,19.46l-54,41.89"/><circle class="cls-7" cx="1080.76" cy="576.6" r="14.72"/><path class="cls-16" d="M1071.58,577.73a9.88,9.88,0,0,1,10-9.79"/></g><g id="HAND-2" data-name="HAND"><g id="SIGN"><line class="cls-17" x1="1299.43" y1="538.79" x2="1281.28" y2="352.06"/><rect class="cls-3" x="1191.95" y="255.01" width="172.83" height="114.86" transform="translate(-24.23 125.11) rotate(-5.55)"/><path class="cls-5" d="M1239.22,312.55l15.15,15.1c4.32,3.56,7.19,10.14,7.73,15.71l1.41,14.53-31.07,3-1-11.33-18.35-21.06a10.54,10.54,0,0,1-.79-9.46c3.75-9.28,10.67-25.4,12.8-30.67a1.2,1.2,0,0,1,1.75-.57l.08,0a7.51,7.51,0,0,1,3.5,7.52l-2,16.64a3.78,3.78,0,0,0,.62,2.69l1.75,2.54,3-4.32A3.51,3.51,0,0,1,1239.22,312.55Z"/><path class="cls-3" d="M1241.24,334.2a1.82,1.82,0,0,1-1.58-.93l-10.79-19.37a1.81,1.81,0,0,1,3.16-1.76l10.79,19.37a1.81,1.81,0,0,1-.7,2.46A1.86,1.86,0,0,1,1241.24,334.2Z"/><path class="cls-5" d="M1315,305.19l-12,17.74c-3.55,4.32-5.1,11.33-4.56,16.9l1.41,14.53,31.07-3L1329.73,340l14-24.2a10.53,10.53,0,0,0-1-9.44c-5.46-8.38-15.36-22.87-18.46-27.63a1.2,1.2,0,0,0-1.83-.22l-.07.05a7.52,7.52,0,0,0-2,8.05l5.2,15.95a3.73,3.73,0,0,1-.09,2.75l-1.23,2.83-3.8-3.65A3.5,3.5,0,0,0,1315,305.19Z"/><path class="cls-3" d="M1316.78,326.86a1.87,1.87,0,0,1-.56-.09,1.81,1.81,0,0,1-1.16-2.28l6.86-21.08a1.81,1.81,0,1,1,3.44,1.12l-6.86,21.08A1.81,1.81,0,0,1,1316.78,326.86Z"/><path class="cls-9" d="M1278.94,328l-29.08-24a16.16,16.16,0,1,1,24.86-19.48,16.2,16.2,0,0,1,6.48-9.22,16.16,16.16,0,0,1,21.66,23.55Z"/></g><g id="HAND-3" data-name="HAND"><path class="cls-10" d="M1321.1,535.86A18,18,0,0,1,1308.4,556l-10.68,3.11,4.32,11.12c1,6.52-4.46,14.21-19.53,16.44s-28.06-1.25-29-7.77l-3.78-46.15a26.3,26.3,0,0,1,18.68-28.9l27.78-8.09a16.18,16.18,0,0,1,20.49,12.92Z"/><path class="cls-13" d="M1270.23,538.08s13.3-6.73,7.71-20.75c0,0,18.74-8.7,17-20.15"/><path class="cls-13" d="M1283.46,514.77l3.65,20.11a17.84,17.84,0,0,0,17.21,14.64l9.88.19"/><line class="cls-13" x1="1290.3" y1="538.8" x2="1315.45" y2="532.99"/><line class="cls-13" x1="1286.93" y1="527.25" x2="1312.08" y2="521.43"/><line class="cls-13" x1="1283.57" y1="515.69" x2="1308.72" y2="509.88"/></g></g></g><g id="MAN"><g id="SHOES"><path class="cls-8" d="M1597.32,1713.62H1460.4c-6.33,0-7.61-8.95-1.53-10.73l23.29-6.8a66.09,66.09,0,0,0,43.21-39.88l1.6-4.21,1.13-3,54.26,1.77,7.9,13.91,17.55,30.87A12.06,12.06,0,0,1,1597.32,1713.62Z"/><line class="cls-12" x1="1454.54" y1="1713.62" x2="1613.42" y2="1713.62"/><path class="cls-12" d="M1530.7,1678.77l-6.36-6.45a7,7,0,0,0-10.48.54l-2.38,3a4.85,4.85,0,0,1-7.58,0"/><path class="cls-10" d="M1590.26,1664.73s-29.11,12.56-63.29-12.73l1.13-3,54.26,1.77Z"/><path class="cls-8" d="M1952.42,1713.62h-126.6a13.43,13.43,0,0,1-12.71-17.78l11.24-32.95,4.6-13.45,55.39-1.86c.93,2,1.93,3.89,3,5.77a95,95,0,0,0,49.27,42.32l17.86,6.75A5.78,5.78,0,0,1,1952.42,1713.62Z"/><line class="cls-12" x1="1808.12" y1="1713.62" x2="1961.69" y2="1713.62"/><path class="cls-12" d="M1912.87,1678.77l-6.36-6.45a7,7,0,0,0-10.48.54l-2.37,3a4.86,4.86,0,0,1-7.59,0"/><path class="cls-10" d="M1887.39,1653.47s-45.89,24.5-63,9.42l4.6-13.45,55.39-1.86,3,5.77Z"/></g><g id="LEGS-2" data-name="LEGS"><path class="cls-11" d="M1898.13,1632.71a12.71,12.71,0,0,1-12,14.49l-60,2.54c-17.77.68-28.92-11.81-32.1-29.3l-109.15-600.29-68.19,608.52a25.36,25.36,0,0,1-26.08,22.51l-75.48-2.66a17,17,0,0,1-16.29-19L1588.7,859.4a10.53,10.53,0,0,1,10.46-9.31h187Z"/><path class="cls-18" d="M1710,1172.63l-27.12-165.2-12-6.71a13.9,13.9,0,0,1-7.54-8.45"/><circle class="cls-16" cx="1673.08" cy="865.77" r="6.51" transform="translate(446.08 2295.19) rotate(-76.72)"/><line class="cls-16" x1="1627.87" y1="888.42" x2="1794.76" y2="888.42"/></g><g id="BODY-2" data-name="BODY"><path class="cls-3" d="M2011.52,753.28a59.36,59.36,0,0,1-112.66,26L1850,664.49a11.34,11.34,0,0,0-19.81,5l-20.36,161.6a21.75,21.75,0,0,1-21.58,19H1607a35.32,35.32,0,0,1-35-30.82L1552.26,666a11.34,11.34,0,0,0-18.17-6.17l-98.71,78.3,135.87,127-47.17,49.21L1388.86,823a105.09,105.09,0,0,1-15.59-153.94l102.21-115a148.13,148.13,0,0,1,107.13-49.7l197.14-4.81a148.15,148.15,0,0,1,93.64,30.42,107.31,107.31,0,0,1,34.07,45l15.91,39.16,11.16-95.66,51.68,19.13,24.88,208.54A59.71,59.71,0,0,1,2011.52,753.28Z"/><polyline class="cls-19" points="1422.36 723.84 1434.98 736.62 1419.9 738.08"/><path class="cls-5" d="M1766,652l-20.29-20.33A12.32,12.32,0,1,1,1766,618.69a12.35,12.35,0,0,1,5.6-6.51,12.2,12.2,0,0,1,6-1.54,12.32,12.32,0,0,1,8.74,21Z"/><polygon class="cls-8" points="1566.21 859.62 1544.67 840.28 1520.22 911.8 1566.21 859.62"/><line class="cls-20" x1="1921.86" y1="604.65" x2="1909.14" y2="716.82"/></g><g id="HAND-4" data-name="HAND"><g id="SIGN-2" data-name="SIGN"><line class="cls-17" x1="1993.35" y1="541.62" x2="2005.33" y2="353.37"/><rect class="cls-3" x="1920.76" y="252.66" width="178.47" height="122.09" transform="translate(34.23 -170.91) rotate(4.91)"/><circle class="cls-8" cx="2009.93" cy="299.77" r="32.78" transform="translate(279.21 1364.79) rotate(-40.09)"/><path class="cls-21" d="M2006.81,281l-3.49-.3a2.28,2.28,0,0,0-2.43,1.8l-1.4,6.61a3.53,3.53,0,0,1-2.88,2.75l-7.35,1.23a3.16,3.16,0,0,0-2.62,2.72l-.28,2.21a2.8,2.8,0,0,0,2,3l2,.57a2.4,2.4,0,0,1,1.61,1.52l.55,1.55.37,1.07-.71-.87-1-1.21a2.36,2.36,0,0,0-1.44-.85l-5.37-1a2.44,2.44,0,0,1-1.73-1.29l-4.51-8.76a32.82,32.82,0,0,1,20.77-22.86l-2.6,4.56a1.35,1.35,0,0,0,1.1,2l5.74.31a2.3,2.3,0,0,1,1.43.6l3,2.78A1,1,0,0,1,2006.81,281Z"/><path class="cls-21" d="M2012,314l-.3,3.54A2.27,2.27,0,0,1,2011,319l-4.14,3.69a1.93,1.93,0,0,1-2,.35l-1.54-.62a.77.77,0,0,0-1.06.63l-.56,4.86a2.44,2.44,0,0,0,.7,2l2.23,2.22a32.93,32.93,0,0,1-6.36-1.71h0l-3.27-3.34a2.13,2.13,0,0,1-.58-1.37l-.15-5.3-5.77-3.53a3.18,3.18,0,0,1-1.51-3l.42-4.86a2.8,2.8,0,0,1,1.39-2.2l3.39-2,.34-.2,3.46-2a2,2,0,0,1,2.2.16l4.49,3.62a2.41,2.41,0,0,1,.88,1.62l.19,1.93a1.14,1.14,0,0,0,1,1l5.13.44A2.33,2.33,0,0,1,2012,314Z"/><path class="cls-21" d="M2027.06,271.81l-2.24.5a2.27,2.27,0,0,1-.78.05l-4.67-.4a2.13,2.13,0,0,0-1.26.28l-5.39,3.06a1.68,1.68,0,0,1-2.33-.71l-1-2a2.08,2.08,0,0,1,.14-2.11l.48-.71a1.12,1.12,0,0,0-.32-1.58L2007.9,267a34.09,34.09,0,0,1,4.84.06A32.69,32.69,0,0,1,2027.06,271.81Z"/><path class="cls-21" d="M2042.6,302.57a32.73,32.73,0,0,1-13.82,24l1.82-5.78.16-3.95a2.63,2.63,0,0,0-2.41-2.73l-4.16-.36a2.67,2.67,0,0,1-1.9-1.06l-2.27-3a2.69,2.69,0,0,1-.53-1.83l.51-5.9a3.83,3.83,0,0,1,2.93-3.4l10-2.4a2.8,2.8,0,0,1,2.06.3l6.38,3.69a2.55,2.55,0,0,1,1.27,2.41Z"/><path class="cls-5" d="M1970.62,312.94l12.15,17.61c3.61,4.28,5.23,11.27,4.76,16.84l-1.25,14.54-31.11-2.67,1.06-11.33-14.23-24a10.54,10.54,0,0,1,1-9.45c5.37-8.44,15.11-23,18.15-27.83a1.21,1.21,0,0,1,1.83-.25l.06.05a7.52,7.52,0,0,1,2.09,8l-5,16a3.74,3.74,0,0,0,.12,2.75l1.26,2.81,3.76-3.69A3.5,3.5,0,0,1,1970.62,312.94Z"/><path class="cls-3" d="M1969,334.63a1.82,1.82,0,0,1-1.71-1.23l-7.09-21a1.8,1.8,0,1,1,3.42-1.15l7.1,21a1.8,1.8,0,0,1-1.14,2.29A1.65,1.65,0,0,1,1969,334.63Z"/><path class="cls-5" d="M2046.43,319.46l-15,15.27c-4.27,3.6-7.07,10.21-7.55,15.79l-1.25,14.54,31.11,2.67.88-11.34,18.12-21.26a10.55,10.55,0,0,0,.68-9.48c-3.85-9.23-10.95-25.28-13.14-30.52a1.21,1.21,0,0,0-1.76-.56l-.07,0a7.52,7.52,0,0,0-3.42,7.57l2.21,16.62a3.76,3.76,0,0,1-.58,2.69l-1.73,2.56-3.07-4.29A3.5,3.5,0,0,0,2046.43,319.46Z"/><path class="cls-3" d="M2044.62,341.12a1.88,1.88,0,0,1-.86-.21,1.82,1.82,0,0,1-.73-2.46L2053.61,319a1.81,1.81,0,1,1,3.18,1.72l-10.58,19.49A1.81,1.81,0,0,1,2044.62,341.12Z"/></g><g id="HAND-5" data-name="HAND"><path class="cls-10" d="M2017.41,514.71a20.61,20.61,0,0,1-19.16,19.5l-12,.84.71,8.93c-.51,7.55-14.59,11.91-32,10.73s-23.82-8.2-23.82-8.2l7-52.68a30.16,30.16,0,0,1,28-27.86l33.14-2.3A18.57,18.57,0,0,1,2019,483.15Z"/><path class="cls-22" d="M1959.81,504.8s16.55-4.3,13.71-21.39c0,0,23.13-5.19,24-18.45"/><path class="cls-22" d="M1980.33,481.89l-.8,23.43a20.46,20.46,0,0,0,15.72,20.62l11,2.62"/><line class="cls-22" x1="1982.14" y1="510.5" x2="2011.77" y2="510.11"/><line class="cls-22" x1="1981.18" y1="496.72" x2="2010.81" y2="496.33"/><line class="cls-22" x1="1980.22" y1="482.94" x2="2009.85" y2="482.55"/></g></g><g id="HEAD-2" data-name="HEAD"><path class="cls-7" d="M1618.64,377.71l-17.58-18.24a26.49,26.49,0,0,1,0-36.48h0a24.24,24.24,0,0,1,35.16,0l4.87,5.06L1646,323a24.23,24.23,0,0,1,35.15,0l4.87,5.06,4.87-5.05a24.22,24.22,0,0,1,35.15,0h0a37.64,37.64,0,0,1,6.94,41.55l-26,56.88Z"/><path class="cls-10" d="M1750.62,500.06c-52,10.5-57.31,54.21-57.31,54.21-19.7-52.33-62.73-51.27-62.73-51.27V441.14l-2.4-.13a21.14,21.14,0,0,1-19.85-23.11l5.22-54.53a18.59,18.59,0,0,1,18.51-16.84h13.34a33.27,33.27,0,0,1,24.47,10.74h0l4.94,25.28a16.09,16.09,0,0,0,15.79,13l.26-1a21.58,21.58,0,0,1,20.92-16.27h.9a21.58,21.58,0,0,1,0,43.16h-2.92Z"/><path class="cls-11" d="M1630.58,441.14s26.55.65,42.31-6.55l-42.31,34.81Z"/><path class="cls-11" d="M1653.18,394.32c0,2.41-1.45,4.37-3.25,4.37s-3.26-2-3.26-4.37,1.46-4.37,3.26-4.37S1653.18,391.91,1653.18,394.32Z"/><path class="cls-11" d="M1620.6,394.32c0,2.14-1.29,3.87-2.89,3.87s-2.88-1.73-2.88-3.87,1.29-3.87,2.88-3.87S1620.6,392.18,1620.6,394.32Z"/><path class="cls-13" d="M1627.38,383.09v19.69a4.41,4.41,0,0,0,3.24,4.25l2.08.57"/><path class="cls-13" d="M1628.84,418.15s10,1.28,14.75-5.23"/><path class="cls-7" d="M1639.61,373.32h14.64a8.26,8.26,0,0,1,8.26,8.26v1.51a0,0,0,0,1,0,0H1647a7.37,7.37,0,0,1-7.37-7.37v-2.4A0,0,0,0,1,1639.61,373.32Z"/><path class="cls-7" d="M1629.43,383.09H1615.5a7.06,7.06,0,0,1-7.06-7.06v-2.71h11.22a9.77,9.77,0,0,1,9.77,9.77Z"/><path class="cls-13" d="M1716.47,393.21s-10.43-.92-11.24,10"/><line class="cls-13" x1="1715.11" y1="403.19" x2="1709.29" y2="396.15"/></g><g id="CLOAK-3" data-name="CLOAK"><path class="cls-8" d="M1687.88,541.33l2.5,12.93-11.29-10.67c-23.52-22.24-60.18-38-93.78-39.49l45.27-27.39,31.16,23.1A67.69,67.69,0,0,1,1687.88,541.33Z"/><path class="cls-13" d="M1679.09,543.59c-23.52-22.24-61.65-39.5-95.24-41"/><path class="cls-8" d="M1690.73,541.28l-1.43,13,11.29-10.67a142.54,142.54,0,0,1,86.15-38.49l32.5-.26-65.68-23.3a27.87,27.87,0,0,0-27.69,5.32l-12.52,11A67.66,67.66,0,0,0,1690.73,541.28Z"/><path class="cls-13" d="M1700.59,543.59a142.54,142.54,0,0,1,86.15-38.49"/><circle class="cls-7" cx="1688.9" cy="557.49" r="14.72" transform="translate(868.08 2135.28) rotate(-80.78)"/><path class="cls-16" d="M1679.72,558.62a9.88,9.88,0,0,1,10-9.79"/></g><g id="HAND-6" data-name="HAND"><path class="cls-10" d="M1520.22,911.8l46-52.18a21.26,21.26,0,0,1,27.72-4L1619.24,872a6.46,6.46,0,0,1,1.37,9.64L1602.14,903l-28.51-1-4.21,7.2c-4.57,10.2-24.82,16.24-34.34,10.38Z"/><line class="cls-13" x1="1607.4" y1="898.2" x2="1576.86" y2="885.58"/><line class="cls-13" x1="1614.44" y1="889.9" x2="1582.71" y2="876.79"/><line class="cls-13" x1="1621.19" y1="882.09" x2="1587.11" y2="868.01"/></g></g></svg>