<svg id="eSuIeYwyA0h1" xmlns="http://www.w3.org/2000/svg" xmlns:xlink="http://www.w3.org/1999/xlink" viewBox="0 0 1600.01 1500.21" shape-rendering="geometricPrecision" text-rendering="geometricPrecision"><g transform="translate(-533.27496-177.75832)"><path d="M675,481.18L807.72,341.4c44.645651-39.564438,102.236174-61.406789,161.89-61.4h169.39c24.153429-.00216,47.643316,7.9039,66.88,22.51l82.49,62.6c17.90964,13.613465,39.783744,20.989127,62.28,21h168.17c46.747207.001769,89.803318,25.398057,112.42,66.31l131,236.9c19.330137,34.964501,56.127897,56.668592,96.08,56.67h42.08c32.21,0,50,37.39,29.68,62.4l-176,216.66c-13.992971,17.229527-18.216954,40.412408-11.2,61.47l32.47,97.37c14.959222,44.861502-4.924307,93.940614-46.89,115.74l-41.51,21.55c-17.663515,9.155769-31.450606,24.351734-38.85,42.82l-47.71,119.3c-33.254367,83.176914-113.811813,137.716273-203.39,137.7h-20.64c-22.096138-.002683-42.280896-12.530485-52.09-32.33L1190.9,1319.6c-15.818655-31.897239-13.632863-69.774162,5.75-99.64l9.15-14.09c26.951621-41.527413,21.359057-96.217196-13.44-131.43l-61-61.69c-18.540389-24.983928-20.640538-58.539302-5.36-85.64l16.64-29.5c4.919051-8.716483,4.841853-19.388921-.202779-28.033332s-14.298519-13.961596-24.307221-13.966668h-274.32c-119.68,0-216.7-97.07-216.7-216.8v-37.67c.005183-44.645365,17.147569-87.585449,47.89-119.96Z" fill="#ede0c4"/><path d="M1921.3,1227.3l.22.45c6.977824,14.191831,7.802499,30.63109,2.28,45.45l-57.88,155.31c-5.172372,13.870217-18.416746,23.06792-33.22,23.07v0c-9.399272,0-18.413575-3.733846-25.059864-10.380136s-10.380136-15.660592-10.380136-25.059864v-124c-.004678-13.837068,6.602562-26.843446,17.78-35l57.44-41.9c7.838762-5.713693,17.802502-7.669624,27.219553-5.34333s17.323912,8.696796,21.600447,17.40333Z" fill="#ede0c4"/></g><g transform="translate(-533.27496-177.75832)"><g><path d="M1623,989.44h304.56v24.14c0,40.387167-16.04374,79.120181-44.601779,107.678221s-67.291054,44.601779-107.678221,44.601779v0c-40.3889,0-79.123429-16.045112-107.681756-44.605315s-44.600896-67.295785-44.598244-107.684685v-24.13Z" fill="#a0d6ff"/><ellipse rx="152.28" ry="24.01" transform="translate(1775.24 989.44)" fill="#56303c"/></g><g><path d="M2054.68,1300.16L1908.18,1336l-24.81-151.26c-29.55-.59-41.91-18.21-45.34-34.78l-23.49-113.29c-.217166-1.05995.048461-2.161574.724832-3.006072s1.693377-1.344332,2.775168-1.363928l8.35-.13c8.588399-.136534,16.550611,4.479242,20.7,12l15.53,28.23l15.3-47.43c1.128917-3.49491.480793-7.320845-1.736199-10.248949s-5.723702-4.589682-9.393801-4.451051l-29.28,1.09l14-22.54c4.911208-7.921678,13.569434-12.74063,22.89-12.74l35.14,1.25-5.28-40.94c-.084469-.646498-.124563-1.298023-.12-1.95.00725-7.346382,5.277432-13.631844,12.51-14.92c1.289852-.242391,2.563721.492207,3,1.73l33.61,95.64Z" fill="#b4702f"/><path d="M1816.85,1039.68c3.587403-.843484,7.349736.329816,9.821754,3.062956s3.262892,6.594007,2.064616,10.078983-4.196256,6.043083-7.82637,6.678061" fill="none" stroke="#56303c" stroke-width="4.87" stroke-linecap="round" stroke-miterlimit="10"/><line x1="1863.77" y1="1072.4" x2="1878.34" y2="1102.37" fill="none" stroke="#56303c" stroke-width="5.95" stroke-linecap="round" stroke-miterlimit="10"/><path d="M1917.29,921.86c-4,1.55-6.15,5.79-4.74,9.47s5.83,5.4,9.86,3.85" fill="none" stroke="#56303c" stroke-width="4.87" stroke-linecap="round" stroke-miterlimit="10"/><path d="M1935.2,998.48c-3.77-12.79-14.94-20.65-28.21-21.89l-37-2.69" fill="none" stroke="#56303c" stroke-width="5.95" stroke-linecap="round" stroke-miterlimit="10"/><polygon points="2058.92,1308.41 2079.43,1362.68 1906.46,1365.34 1904.11,1351.58 1880.07,1358.28 1877.71,1292.96 2065.45,1267.08 2079.43,1302.69 2058.92,1308.41" fill="#ffafb1"/><polygon points="1991.77,1327.14 1904.11,1351.58 1906.45,1365.33 1991.77,1327.14" fill="#56303c"/></g></g><g transform="translate(-533.27496-177.75832)"><g><path d="M1657.79,1069.29l-.15.92c-3.37,10.44-63.93,19.17-146,22-18.21.63-37.49,1-57.43,1q-13.45,0-26.47-.2c-97.39-1.48-173.18-11-177-22.76l-.15-.92c0-13.19,91.14-23.88,203.57-23.88s203.63,10.65,203.63,23.84Z" fill="#56303c"/><circle r="11.79" transform="translate(1363.08 1066.92)" fill="#fff"/><path d="M1514.71,1095.27c-18.21.63-37.49,1-57.43,1-9,0-17.81-.07-26.47-.2c1.54-19.86,19.75-35.54,42-35.54c21.93-.03,39.96,15.25,41.9,34.74Z" fill="#fff"/><ellipse rx="26.61" ry="24.48" transform="translate(1559.46 1099.41)" fill="#fff"/><path d="M1657.64,1070.21l-7.19,44c-15.706823,96.171566-98.794248,166.789914-196.24,166.789914s-180.533177-70.618348-196.24-166.789914l-7.18-44c3.77,11.72,79.56,21.28,177,22.76q13,.19,26.47.2c19.94,0,39.22-.34,57.43-1c82.02-2.79,142.58-11.52,145.95-21.96Z" fill="#d9af00"/></g><g><path d="M1238.22,1412.72v-117.18c.002383-34.986055,13.754089-68.56981,38.29-93.51l98.92-100.55c1.182849-1.206297,2.832192-1.837982,4.518229-1.730444s3.241762.943646,4.261771,2.290444l.39.51c5.466843,7.22324,6.613613,16.833173,3,25.14l-12.6,33.92c-1.66574,4.467542-.708147,9.490758,2.484364,13.032155s8.089872,5.012977,12.705636,3.817845l158.65-41.23c5.002287-1.573916,10.370728.983732,12.3,5.86l.09.22c2.035512,5.09307-.27714,10.887889-5.26,13.18-13.61,6.24-38.09,17.5-38.09,17.5l57-18.82c5.776898-1.881385,12.00882,1.133064,14.12,6.83l.1.26c2.152564,5.7878-.584875,12.249735-6.24,14.73-18.08,7.92-54.31,23.85-54.88,24.1l42.4-13.11c5.00239-1.542871,10.354532.992126,12.33,5.84l.08.22c2.008539,4.854998.060774,10.444609-4.53,13l-66.43,37c-.993803.567168-1.457274,1.750813-1.112818,2.841993s1.4035,1.794209,2.542818,1.688007l50.8-5.14c8.06-.82,10.74,10.49,3.17,13.38l-178.22,68c-5.170049,1.968917-8.23022,7.314798-7.31,12.77l11.68,69.46Z" fill="#b4702f"/><line x1="1528.22" y1="1170.74" x2="1483.76" y2="1184.64" fill="none" stroke="#56303c" stroke-width="5.95" stroke-linecap="round" stroke-miterlimit="10"/><line x1="1532.87" y1="1199.6" x2="1496.17" y2="1211.08" fill="none" stroke="#56303c" stroke-width="5.95" stroke-linecap="round" stroke-miterlimit="10"/><circle r="6.1" transform="matrix(.707107-.707107 0.707107 0.707107 1553.009106 1146.681302)" fill="none" stroke="#56303c" stroke-width="4.87" stroke-linecap="round" stroke-miterlimit="10"/><circle r="6.1" transform="matrix(.22971-.973259 0.973259 0.22971 1575.259876 1197.523604)" fill="none" stroke="#56303c" stroke-width="4.87" stroke-linecap="round" stroke-miterlimit="10"/><circle r="4.75" transform="matrix(.22971-.973259 0.973259 0.22971 1565.177451 1250.220042)" fill="none" stroke="#56303c" stroke-width="4.33" stroke-linecap="round" stroke-miterlimit="10"/><circle r="7.12" transform="matrix(.22971-.973259 0.973259 0.22971 1580.288671 1165.321716)" fill="none" stroke="#56303c" stroke-width="4.87" stroke-linecap="round" stroke-miterlimit="10"/><path d="M1378.19,1101.21c3.832503,4.300791,3.777518,10.807381-.12712,15.04279s-10.385315,4.818129-14.98288,1.34721" fill="none" stroke="#56303c" stroke-width="4.87" stroke-linecap="round" stroke-miterlimit="10"/><path d="M1437,1529.52c0,15.53-45.41,28.13-101.42,28.13-40.91,0-76.17-6.72-92.2-16.4-5.92-3.57-9.22-7.54-9.22-11.73v-98h-23.68l12.42-66.48l188.42,25.12l10.77,41.36h-16.09l30.48,95l.31,1c.071995.273305.128749.550398.17.83.041501.388527.054869.779546.04,1.17Z" fill="#a0d6ff"/><polygon points="1405.98,1431.5 1269.91,1431.5 1411.46,1448.58 1405.98,1431.5" fill="#56303c"/></g></g><g transform="translate(-533.27496-177.75832)"><g><path d="M1166.19,926.84c.019735.179459.019735.360541,0,.54-2.24,10.53-69.74,19-152.69,19s-150.45-8.45-152.68-19c-.039717-.177259-.059837-.358346-.06-.54-.004946-.049878-.004946-.100122,0-.15-.010199-.042733-.010199-.087267,0-.13c1.17-10.65,69.1-19.24,152.72-19.24s151.55,8.59,152.73,19.24c.005335.043169.005335.086831,0,.13Z" fill="#56303c"/><path d="M998.91,947.49c9.8,17.76,3.9,39.73-13.23,48.62-15.94,8.27-36.23,2-46-14.32-8.08-13.47-6.85-29.65,1.64-40.73c2.718919-3.699184,3.004983-8.652402.73-12.64L860.86,781.25c-1.73-3.13-.89-7.11,2-8.8c1.496338-.809538,3.255555-.982672,4.880998-.480365s2.980269,1.637767,3.759002,3.150365l81.21,147.2c2.141917,4.073567,6.501206,6.483165,11.09,6.13c13.66-1.45,27.75,5.69,35.11,19.04Z" transform="translate(.000001 0)" fill="#d9af00"/><path d="M1166.14,927.38L1164,951.24c-5.58,79-35,140.31-150.57,140.31-132.55,0-145-61.27-150.57-140.31l-2.11-23.86c2.23,10.53,69.73,19,152.68,19s150.47-8.47,152.71-19Z" fill="#ffafb1"/></g><g><path d="M1046.08,1142.28v167.37c0,17.93-30.81,37.62-69.28,44.19-37.49,6.39-68.56-2-71.17-18.87l12-168.74-77.91-60.55c-9.544229-8.776769-14.366562-21.555952-13-34.45c4.07-38.55,12.66-106,15-127.89.151879-1.366862.896044-2.598182,2.035581-3.36814s2.559598-1.000952,3.884419-.63186l.31.09c11.246717,3.127574,19.534535,12.675298,21.05,24.25l10.19,64.18c.48108,3.652016,2.328503,6.985954,5.17,9.33l9.23,7.59c-2.997844-2.779035-4.701175-6.682201-4.7-10.77v-7.68c-.002781-1.902772.95405-3.678676,2.544658-4.722953s3.60054-1.216134,5.345342-.457047l97.69,42.41c31.344566,13.621116,51.617899,44.543743,51.61,78.72Z" fill="#b4702f"/><line x1="891.16" y1="1045.39" x2="948.79" y2="1090.06" fill="none" stroke="#56303c" stroke-width="5.95" stroke-linecap="round" stroke-miterlimit="10"/><path d="M843.4,945c3.760124.300311,7.059869,2.620603,8.61446,6.057457s1.118319,7.447057-1.138953,10.469216-5.978769,4.578605-9.715507,4.063327" fill="none" stroke="#56303c" stroke-width="4.87" stroke-linecap="round" stroke-miterlimit="10"/><path d="M917.15,1031.71c-1.571969,3.703058-5.000085,6.286189-8.993012,6.776353s-7.944042-1.187106-10.365-4.4-2.943957-7.473295-1.371988-11.176353" fill="none" stroke="#56303c" stroke-width="4.87" stroke-linecap="round" stroke-miterlimit="10"/><path d="M1055,1361l.2,5c-3.33,16.14-46.1,21.54-91.05,12.29-44-9.06-78.47-29.22-76.85-45.21v0l.16-1v0l12.11-80-18.65-3.69l14.62-35.18l167.27,28l4.19,44-15.22-3Z" fill="#d9af00"/><polygon points="1051.76,1282.13 979.46,1267.82 1052.58,1302.21 1051.76,1282.13" fill="#56303c"/></g></g><g transform="translate(-533.27496-177.75832)"><g><line x1="1611.6" y1="756.55" x2="1392.93" y2="249.34" fill="none" stroke="#56303c" stroke-width="7.27" stroke-linecap="round" stroke-miterlimit="10"/><path d="M1636.82,807.08c-.007714,48.909649-34.410191,91.069387-82.324315,100.887255s-96.125481-15.413839-115.368636-60.378879-4.210968-97.262337,35.971669-125.146195s94.433604-23.664084,129.821282,10.097819c20.376767,19.440622,31.904442,46.377074,31.9,74.54Z" fill="#a0d6ff"/><path d="M1542.59,841.39c-39.53,18.58-81.33,17.37-106.1-.39-15.750478-44.961805,1.388766-94.858205,41.443273-120.651187s92.571029-20.751204,126.986727,12.191187c.12.25.24.49.35.74c16.73,35.55-11.34,83.96-62.68,108.11Z" fill="#56303c"/><path d="M1389.16,857.54c-.00363-28.000103,14.79224-53.91684,38.905917-68.148368s53.953467-14.658082,78.464083-1.121632l47.75,38.93c-13.24,12.55-41.26,16.53-52.94,21.43-10.8,4.53-17.8,17.91-17.8,29.62v213.48c-7.47,0-14.84,1.49-22.1,1.39-25.86-.4-50.26,0-72.27-1.35Z" fill="#fff"/><line x1="1376.8" y1="881.31" x2="1376.8" y2="955.1" fill="none" stroke="#fff" stroke-width="4.91" stroke-linecap="round" stroke-miterlimit="10"/></g><g><path d="M1958.78,427.32L1597.25,316.57c-13.976421-4.271238-28.69418-5.559042-43.2-3.78l-148.94,18.35c-3.993029.488869-7.419547,3.076262-8.982762,6.782963s-1.024311,7.96642,1.412762,11.167037v0c8.814056,11.585108,22.17293,18.834364,36.69,19.91l72.38,5.37c1.402937.044667,2.587358,1.056143,2.851099,2.43479s-.463711,2.755872-1.751099,3.31521l-86.19,42l4.6-17.78c1.237066-4.791135.187713-9.885066-2.842231-13.797195s-7.699506-6.202207-12.647769-6.202805v0c-5.816494.000914-11.201753,3.067889-14.17,8.07l-25.1,42.29c-8.308189,13.992611-5.26067,31.943345,7.2,42.41l106.7,89.63c19.917385,16.727884,47.614554,20.672433,71.41,10.17l109-48.14l237.1,132.43c0,0,102.91-97.1,56.01-233.88Z" fill="#b4702f"/><path d="M1424.31,423.5l-15.13,59.7c-2.35,10.21-1.46,15.62,6.56,22.36" fill="none" stroke="#56303c" stroke-width="6.15" stroke-linecap="round" stroke-miterlimit="10"/><path d="M1415.74,505.56c-4.923613-4.135095-7.668714-10.307146-7.442154-16.732848s3.399537-12.389091,8.602154-16.167152l71.54-52c4.37591-3.178839,10.247561-3.369014,14.82-.48v0c3.097181,1.961718,5.238986,5.123159,5.91233,8.726972s-.182435,7.32533-2.36233,10.273028l-15,20.08" fill="none" stroke="#56303c" stroke-width="6.15" stroke-linecap="round" stroke-miterlimit="10"/><path d="M1452.17,536.15c-5.157677-4.329549-8.265844-10.621695-8.569895-17.348818s2.223822-13.274005,6.969895-18.051182l63.71-64.13c5.083478-5.124862,13.096246-5.902189,19.07-1.85v0c6.638044,4.481816,8.583951,13.388084,4.42,20.23l-38.83,64" fill="none" stroke="#56303c" stroke-width="6.15" stroke-linecap="round" stroke-miterlimit="10"/><path d="M1491,568.8c-5.284435-4.453957-8.573049-10.832523-9.136261-17.720612s1.645545-13.716155,6.136261-18.969388l40.72-47.68c4.238527-4.942826,11.430846-6.093597,17-2.72v0c5.653193,3.451935,7.907821,10.535474,5.29,16.62l-26,60.52" fill="none" stroke="#56303c" stroke-width="6.15" stroke-linecap="round" stroke-miterlimit="10"/><path d="M1432.8,331.43c.623429,5.387565-1.674732,10.698476-6.028786,13.932163s-10.102517,3.898878-15.08,1.745-8.427786-6.799598-9.051214-12.187163" fill="none" stroke="#56303c" stroke-width="6.15" stroke-linecap="round" stroke-miterlimit="10"/><path d="M1510.78,377.17c0,0,39.06,46.57,100.12,53.9" fill="none" stroke="#56303c" stroke-width="6.15" stroke-linecap="round" stroke-miterlimit="10"/><line x1="1665.68" y1="528.76" x2="1701.83" y2="504.34" fill="none" stroke="#56303c" stroke-width="6.15" stroke-linecap="round" stroke-miterlimit="10"/><circle r="9.77" transform="translate(1411.76 397.33)" fill="none" stroke="#56303c" stroke-width="5.59" stroke-linecap="round" stroke-miterlimit="10"/><circle r="9.77" transform="matrix(.92388-.382683 0.382683 0.92388 1496.98723 429.49464)" fill="none" stroke="#56303c" stroke-width="5.59" stroke-linecap="round" stroke-miterlimit="10"/><circle r="10.92" transform="matrix(.160226-.98708 0.98708 0.160226 1526.731734 444.357296)" fill="none" stroke="#56303c" stroke-width="5.59" stroke-linecap="round" stroke-miterlimit="10"/><circle r="9.77" transform="translate(1539.95 491.79)" fill="none" stroke="#56303c" stroke-width="5.59" stroke-linecap="round" stroke-miterlimit="10"/><polygon points="1931.72,399.19 1979.27,396.41 1975.63,712.4 1885.94,681.8 1931.72,399.19" fill="#d9af00"/><polygon points="1919.7,464.81 1890.39,654.29 1871.95,643.99 1919.7,464.81" fill="#56303c"/><line x1="1458.09" y1="400.69" x2="1471.16" y2="430.92" fill="none" stroke="#5d2d3c" stroke-width="7.36" stroke-linecap="round" stroke-miterlimit="10"/><line x1="1549.33" y1="612.51" x2="1526.92" y2="559.79" fill="none" stroke="#5d2d3c" stroke-width="6.87" stroke-linecap="round" stroke-miterlimit="10"/></g></g></svg>
