<svg id="_ëîé_1" data-name="‘ëîé_1" xmlns="http://www.w3.org/2000/svg" xmlns:xlink="http://www.w3.org/1999/xlink" viewBox="0 0 2706.01 1894.21"><defs><style>.cls-1{fill:#ede0c4;}.cls-2{fill:#f5efd9;}.cls-3{fill:#f6eed6;}.cls-11,.cls-12,.cls-13,.cls-14,.cls-15,.cls-16,.cls-17,.cls-18,.cls-20,.cls-21,.cls-22,.cls-25,.cls-27,.cls-28,.cls-29,.cls-31,.cls-33,.cls-34,.cls-35,.cls-36,.cls-37,.cls-4,.cls-6{fill:none;}.cls-15,.cls-28,.cls-33,.cls-34,.cls-37,.cls-4{stroke:#56303c;}.cls-11,.cls-12,.cls-13,.cls-14,.cls-15,.cls-17,.cls-18,.cls-20,.cls-21,.cls-22,.cls-23,.cls-24,.cls-25,.cls-26,.cls-27,.cls-28,.cls-29,.cls-30,.cls-33,.cls-34,.cls-35,.cls-36,.cls-4,.cls-6{stroke-miterlimit:10;}.cls-13,.cls-14,.cls-15,.cls-17,.cls-22,.cls-23,.cls-24,.cls-25,.cls-26,.cls-30,.cls-4{stroke-width:5.41px;}.cls-5{fill:#ffafb1;}.cls-11,.cls-18,.cls-6{stroke:#f6eed6;}.cls-12,.cls-20,.cls-21,.cls-33,.cls-34,.cls-37,.cls-6{stroke-width:4.33px;}.cls-7{fill:#b4702f;}.cls-23,.cls-24,.cls-26,.cls-30,.cls-8{fill:#fff;}.cls-9{fill:#a0d6ff;}.cls-10{fill:#56303c;}.cls-11,.cls-31{stroke-width:3.79px;}.cls-12,.cls-13,.cls-17,.cls-31,.cls-35,.cls-36{stroke:#fff;}.cls-13,.cls-14,.cls-15,.cls-16,.cls-20,.cls-27,.cls-28,.cls-29,.cls-33,.cls-35,.cls-36,.cls-37{stroke-linecap:round;}.cls-14,.cls-20{stroke:#d9af00;}.cls-16{stroke:#e2ad00;}.cls-16,.cls-31,.cls-37{stroke-linejoin:round;}.cls-16,.cls-28{stroke-width:10.82px;}.cls-18{stroke-width:3.25px;}.cls-19{fill:#d9af00;}.cls-21{stroke:#c06c18;}.cls-22,.cls-23{stroke:#ffafb1;}.cls-24{stroke:#ffa9ae;}.cls-25,.cls-26{stroke:#a0d6ff;}.cls-27,.cls-29{stroke:#6dd7ff;}.cls-27,.cls-35{stroke-width:4.87px;}.cls-29{stroke-width:13.53px;}.cls-30{stroke:#b4702f;}.cls-32{clip-path:url(#clip-path);}.cls-36{stroke-width:2.71px;}</style><clipPath id="clip-path"><path class="cls-1" d="M1722.92,1433.26l-63.74,53-177.62-310-23.64,99-131.58,185.18-61.65-40.1,103.8-216.88,24.39-201.55a39.56,39.56,0,0,1,39.26-34.79h96.59a2.62,2.62,0,0,1,2.42,1.62h0Z"/></clipPath></defs><path id="WAY" class="cls-2" d="M2443.87,1445.05v161.78l-2176-76.57c-8.08-.77-7.49-12.74.63-12.72L1895,1522.3c50.24.15,69.29-65.59,26.77-92.34L1758.14,1327c-18.81-8.21-15.53-32.75,4.67-36.33l299.87-49h46.58L1864,1300.2c-7.45,1.43-7.51,12.08-.07,13.58Z"/><g id="TENTS"><g id="FLAG"><rect class="cls-3" x="2232.72" y="703.6" width="106.33" height="73.94"/><line class="cls-4" x1="2233.21" y1="1240.24" x2="2233.21" y2="698.55"/><polygon class="cls-5" points="2305.46 731.69 2305.46 747.92 2294.66 747.92 2294.66 758.72 2278.43 758.72 2278.43 747.92 2267.63 747.92 2267.63 731.69 2278.43 731.69 2278.43 720.89 2294.66 720.89 2294.66 731.69 2305.46 731.69"/></g><polygon class="cls-1" points="2262.73 1243.89 1941.62 1243.89 1941.62 902.54 2170.68 902.54 2262.73 1243.89"/><polygon class="cls-2" points="2033.66 1243.89 1526.77 1243.89 1603.48 902.54 1772.55 825.83 1941.62 902.54 2033.66 1243.89"/><polygon class="cls-1" points="1941.62 902.54 1772.55 825.83 2001.61 825.83 2170.68 902.54 1941.62 902.54"/><polyline class="cls-6" points="1772.55 825.83 1941.62 902.54 2170.68 902.54"/><line class="cls-6" x1="1866.13" y1="825.83" x2="2035.2" y2="902.54"/><line class="cls-6" x1="1944.37" y1="825.83" x2="2113.44" y2="902.54"/><rect class="cls-7" x="1660.67" y="1008.8" width="214.55" height="235.08"/><path class="cls-8" d="M1661.18,969.4h211a0,0,0,0,1,0,0v39.4a0,0,0,0,1,0,0h-211a18.92,18.92,0,0,1-18.92-18.92v-1.57A18.92,18.92,0,0,1,1661.18,969.4Z"/><ellipse class="cls-9" cx="1872" cy="989.1" rx="18.17" ry="19.7"/><polygon class="cls-10" points="1684.47 1008.8 1875.22 1008.8 1875.22 1130.41 1684.47 1008.8"/><line class="cls-11" x1="1839.88" y1="1008.8" x2="1839.88" y2="1051.53"/><line class="cls-11" x1="1684.23" y1="1008.8" x2="1684.23" y2="1032.88"/><polygon class="cls-2" points="2092.35 994.07 2323.24 994.07 2443.87 1244.15 2212.99 1244.15 2092.35 994.07"/><polygon class="cls-9" points="1968.08 1244.15 2212.99 1244.15 2092.35 994.07 2091.36 994.07 1968.08 1244.15"/><line class="cls-12" x1="2092.89" y1="994.07" x2="1966.54" y2="1244.15"/><path class="cls-10" d="M2053.8,1244.15h86.71a159.77,159.77,0,0,1-85.37-123.75l-1.34-11.7Z"/><path class="cls-13" d="M2137.89,1244.15c-47.29-24.45-80-79.72-86-132.61"/><line class="cls-4" x1="2137.89" y1="1244.15" x2="2137.89" y2="1114.57"/></g><g id="SUN_CLOUDS" data-name="SUN &amp; CLOUDS"><circle class="cls-2" cx="1315.31" cy="409.83" r="122.45"/><path class="cls-1" d="M1622.19,408.58h-256c0-22.7,23.32-41.1,52.08-41.1a64.57,64.57,0,0,1,18.5,2.67c9.54-14,24.18-22.92,40.6-22.92,24.65,0,45.3,20.17,50.7,47.28,9.47-6.67,24.76-11.94,42-11.94C1598.87,382.57,1622.19,397.23,1622.19,408.58Z"/><path class="cls-1" d="M1190.17,541.76H924.77c0-31.84,35.24-57.65,78.7-57.65,28.36,0,53.22,11,67.08,27.47a133.9,133.9,0,0,1,40.91-6.31C1154.92,505.28,1190.17,525.85,1190.17,541.76Z"/></g><g id="FOOD_CART" data-name="FOOD CART"><g id="CART"><path class="cls-14" d="M476.44,1496.18a39.5,39.5,0,0,1-29.29,38.15"/><path class="cls-15" d="M1244.91,1037.49l-118.54,371.27a35.2,35.2,0,0,1-33.54,24.5H311.61"/><line class="cls-16" x1="1187.81" y1="1039.03" x2="1294.47" y2="1039.03"/><circle class="cls-9" cx="425.39" cy="1489.17" r="39.47"/><circle class="cls-17" cx="425.39" cy="1489.17" r="27.06"/><circle class="cls-9" cx="994.55" cy="1489.17" r="39.47"/><circle class="cls-15" cx="994.55" cy="1489.17" r="27.06"/></g><g id="SEEDS"><rect class="cls-1" x="385.95" y="762.65" width="384.64" height="655.07"/><line class="cls-18" x1="533.86" y1="1418.12" x2="533.86" y2="763.96"/><line class="cls-18" x1="505.11" y1="1418.12" x2="505.11" y2="763.96"/><line class="cls-18" x1="563.48" y1="1418.12" x2="563.48" y2="763.96"/><line class="cls-18" x1="593.1" y1="1418.12" x2="593.1" y2="763.96"/><line class="cls-18" x1="622.72" y1="1418.12" x2="622.72" y2="763.96"/><line class="cls-18" x1="652.34" y1="1418.12" x2="652.34" y2="763.96"/><line class="cls-18" x1="681.96" y1="1418.12" x2="681.96" y2="763.96"/><line class="cls-18" x1="711.58" y1="1418.12" x2="711.58" y2="763.96"/><line class="cls-18" x1="416.65" y1="1418.12" x2="416.65" y2="763.96"/><line class="cls-18" x1="446.28" y1="1418.12" x2="446.28" y2="763.96"/><line class="cls-18" x1="475.9" y1="1418.12" x2="475.9" y2="763.96"/><line class="cls-18" x1="769.51" y1="1021.03" x2="386.56" y2="1021.03"/><line class="cls-18" x1="769.51" y1="991.4" x2="386.56" y2="991.4"/><line class="cls-18" x1="769.51" y1="961.78" x2="386.56" y2="961.78"/><line class="cls-18" x1="769.51" y1="932.16" x2="386.56" y2="932.16"/><line class="cls-18" x1="769.51" y1="902.54" x2="386.56" y2="902.54"/><line class="cls-18" x1="769.51" y1="872.92" x2="386.56" y2="872.92"/><line class="cls-18" x1="769.51" y1="843.3" x2="386.56" y2="843.3"/><line class="cls-18" x1="769.51" y1="813.68" x2="388.23" y2="813.68"/><line class="cls-18" x1="769.51" y1="784.05" x2="386.56" y2="784.05"/><line class="cls-18" x1="769.51" y1="1258.17" x2="386.56" y2="1258.17"/><line class="cls-18" x1="769.51" y1="1288.1" x2="386.56" y2="1288.1"/><line class="cls-18" x1="769.51" y1="1228.55" x2="386.56" y2="1228.55"/><line class="cls-18" x1="769.51" y1="1198.93" x2="386.56" y2="1198.93"/><line class="cls-18" x1="769.51" y1="1373.23" x2="386.56" y2="1374.77"/><line class="cls-18" x1="769.51" y1="1404.7" x2="386.56" y2="1404.7"/><line class="cls-18" x1="769.51" y1="1345.15" x2="386.56" y2="1345.15"/><line class="cls-18" x1="769.51" y1="1315.52" x2="386.56" y2="1315.52"/><line class="cls-18" x1="769.51" y1="1169.31" x2="386.56" y2="1169.31"/><line class="cls-18" x1="769.51" y1="1139.69" x2="386.56" y2="1139.69"/><line class="cls-18" x1="769.51" y1="1110.07" x2="386.56" y2="1110.07"/><line class="cls-18" x1="769.51" y1="1080.45" x2="386.56" y2="1080.45"/><line class="cls-18" x1="769.51" y1="1050.82" x2="388.23" y2="1050.82"/><line class="cls-18" x1="742.55" y1="1418.12" x2="742.55" y2="763.96"/><ellipse class="cls-19" cx="669.19" cy="896.89" rx="9.34" ry="22.98"/><ellipse class="cls-19" cx="688.37" cy="936.76" rx="22.98" ry="9.34" transform="translate(-471.36 1016.83) rotate(-57.64)"/><ellipse class="cls-19" cx="650.02" cy="936.76" rx="9.34" ry="22.98" transform="translate(-400.45 493.4) rotate(-32.36)"/><ellipse class="cls-19" cx="688.37" cy="987.39" rx="22.98" ry="9.34" transform="translate(-514.12 1040.36) rotate(-57.64)"/><ellipse class="cls-19" cx="650.02" cy="987.39" rx="9.34" ry="22.98" transform="translate(-427.55 501.26) rotate(-32.36)"/><line class="cls-20" x1="669.19" y1="910.57" x2="669.19" y2="1046.69"/><line class="cls-20" x1="669.19" y1="865.3" x2="669.19" y2="858.51"/><ellipse class="cls-19" cx="488.59" cy="930.76" rx="9.34" ry="22.98"/><ellipse class="cls-19" cx="507.77" cy="964.51" rx="22.98" ry="9.34" transform="matrix(0.54, -0.84, 0.84, 0.54, -578.73, 877.17)"/><ellipse class="cls-19" cx="469.42" cy="964.51" rx="9.34" ry="22.98" transform="matrix(0.84, -0.54, 0.54, 0.84, -443.35, 401.04)"/><ellipse class="cls-19" cx="507.77" cy="1010.53" rx="22.98" ry="9.34" transform="translate(-617.6 898.56) rotate(-57.64)"/><ellipse class="cls-19" cx="469.42" cy="1010.53" rx="9.34" ry="22.98" transform="translate(-467.98 408.19) rotate(-32.36)"/><line class="cls-20" x1="488.59" y1="944.45" x2="488.59" y2="1046.82"/><line class="cls-20" x1="488.59" y1="899.18" x2="488.59" y2="892.39"/><ellipse class="cls-19" cx="584.99" cy="855.94" rx="9.34" ry="22.98"/><ellipse class="cls-19" cx="604.17" cy="889.68" rx="22.98" ry="9.34" transform="translate(-470.72 923.82) rotate(-57.64)"/><ellipse class="cls-19" cx="604.17" cy="935.7" rx="22.98" ry="9.34" transform="translate(-509.6 945.21) rotate(-57.64)"/><ellipse class="cls-19" cx="565.81" cy="889.68" rx="9.34" ry="22.98" transform="translate(-388.32 441.02) rotate(-32.36)"/><ellipse class="cls-19" cx="565.81" cy="935.7" rx="9.34" ry="22.98" transform="translate(-412.96 448.17) rotate(-32.36)"/><ellipse class="cls-19" cx="604.17" cy="986.33" rx="22.98" ry="9.34" transform="translate(-552.36 968.74) rotate(-57.64)"/><ellipse class="cls-19" cx="565.81" cy="986.33" rx="9.34" ry="22.98" transform="translate(-440.05 456.03) rotate(-32.36)"/><line class="cls-20" x1="584.99" y1="869.63" x2="584.99" y2="1045.63"/><rect class="cls-8" x="520.34" y="762.51" width="120.56" height="52.79"/><rect class="cls-8" x="520.34" y="1364.93" width="120.56" height="52.79"/><rect class="cls-19" x="770.59" y="762.65" width="85.91" height="655.07"/><rect class="cls-8" x="452.45" y="1051.26" width="253.18" height="94.42" rx="18.69"/><rect class="cls-9" x="487.96" y="1081.32" width="183.2" height="34.64"/><path class="cls-21" d="M536.35,1101.34l5-5a6.47,6.47,0,0,1,9.14,0l4.18,4.18a4.54,4.54,0,0,0,6.4,0l4.17-4.18a6.47,6.47,0,0,1,9.14,0l4.52,4.52a4.53,4.53,0,0,0,6.41,0l4.51-4.52a6.47,6.47,0,0,1,9.14,0l4.18,4.18a4.54,4.54,0,0,0,6.4,0l4.17-4.18a6.47,6.47,0,0,1,9.14,0l6,6.06"/><path class="cls-17" d="M856.5,762.65c0,18.54-19.23,33.58-43,33.58s-42.95-15-42.95-33.58"/><polygon class="cls-10" points="385.95 786.06 569.83 762.51 385.95 822.46 385.95 786.06"/><path class="cls-21" d="M536.35,789.91l5-5a6.45,6.45,0,0,1,9.14,0l4.18,4.17a4.52,4.52,0,0,0,6.4,0l4.17-4.17a6.45,6.45,0,0,1,9.14,0l4.52,4.52a4.53,4.53,0,0,0,6.41,0l4.51-4.52a6.45,6.45,0,0,1,9.14,0l4.18,4.17a4.52,4.52,0,0,0,6.4,0l4.17-4.17a6.45,6.45,0,0,1,9.14,0l6,6.05"/><line class="cls-20" x1="584.99" y1="827.98" x2="584.99" y2="824.5"/></g><g id="WATER"><path class="cls-9" d="M1093.09,761v73.67a34.18,34.18,0,0,1-19.93,31.06h0a10.22,10.22,0,0,0,1.3,19.07l1.52.46a24.08,24.08,0,0,1,17.11,23v.47a24.09,24.09,0,0,1-17,23h0a13.74,13.74,0,0,0-3.1,24.86l1,.61a39.85,39.85,0,0,1,19.07,34v387.53c0,.24,0,.47,0,.7-.39,10.65-9.58,19.17-20.87,19.17a20.76,20.76,0,0,1-20.12-14.54,18.58,18.58,0,0,0-5.44-8.79l-.81-.71a18,18,0,0,0-23.74-.11l-.88.77a18,18,0,0,0-5.55,8.4c-2.79,9.45-13.53,16.49-26.35,16.49s-23.55-7-26.35-16.49a18.14,18.14,0,0,0-5.54-8.44l-1.25-1.1a18,18,0,0,0-23.18-.46l-1.85,1.5a18.08,18.08,0,0,0-6.08,8.94A20.76,20.76,0,0,1,905,1398.64c-11.29,0-20.48-8.52-20.87-19.17,0-.23,0-.46,0-.7V993a39.86,39.86,0,0,1,18.36-33.56l4.31-2.76a13.74,13.74,0,0,0-2.68-24.48l-4.19-1.54a24.09,24.09,0,0,1-15.8-22.61h0a24.08,24.08,0,0,1,15.59-22.53l2.44-.92a10.23,10.23,0,0,0,1.47-18.44l-2.29-1.3a34.19,34.19,0,0,1-17.21-29.66V761l13.4-8.54a24.29,24.29,0,0,1,26.18,0l4.06,2.61a16,16,0,0,0,17.24,0l4-2.61a24.31,24.31,0,0,1,26.19,0l4.82,3.08a16,16,0,0,0,17.14,0l4.83-3.08a24.29,24.29,0,0,1,26.18,0l4.06,2.61a16,16,0,0,0,17.24,0l4.06-2.61a24.27,24.27,0,0,1,26.18,0Z"/><path class="cls-13" d="M897.47,777a24.29,24.29,0,0,1,26.18,0l4.06,2.61a16,16,0,0,0,17.24,0l4-2.61a24.31,24.31,0,0,1,26.19,0l4.82,3.08a16,16,0,0,0,17.14,0L1002,777a24.29,24.29,0,0,1,26.18,0l4.06,2.61a16,16,0,0,0,17.24,0l4.06-2.61a24.29,24.29,0,0,1,26.18,0"/><path class="cls-13" d="M897.47,801.54a24.29,24.29,0,0,1,26.18.05l4.06,2.61a16,16,0,0,0,17.24,0l4-2.61a24.31,24.31,0,0,1,26.19-.05l4.82,3.08a16,16,0,0,0,17.14,0l4.83-3.08a24.29,24.29,0,0,1,26.18.05l4.06,2.61a16,16,0,0,0,17.24,0l4.06-2.61a24.27,24.27,0,0,1,26.18,0"/><path class="cls-22" d="M1107,991.31v393.38a33,33,0,0,1-65,8.17h0c-2.2-8.63-14.46-8.63-16.66,0h0a33,33,0,0,1-32,24.86H986a33,33,0,0,1-32-24.86l-.07-.29c-2.2-8.63-14.46-8.63-16.66,0l-.07.29a33,33,0,0,1-65-8.17V991.31a49.81,49.81,0,0,1,49.81-49.81h135.25A49.81,49.81,0,0,1,1107,991.31Z"/><rect class="cls-22" x="872.12" y="877.57" width="234.88" height="63.93" rx="30.07"/><path class="cls-22" d="M968.13,672.51H1011a96,96,0,0,1,96,96V837.3a40.28,40.28,0,0,1-40.28,40.28H912.4a40.28,40.28,0,0,1-40.28-40.28V768.51A96,96,0,0,1,968.13,672.51Z"/><path class="cls-23" d="M951.49,633.26v49.09c0,13.89,17,25.14,38.07,25.14s38.07-11.25,38.07-25.14V633.26Z"/><ellipse class="cls-24" cx="989.56" cy="633.26" rx="38.07" ry="25.14"/><path class="cls-25" d="M1027.63,633.26v16.88c0,13.88-17.05,25.14-38.07,25.14S951.49,664,951.49,650.14V633.26"/><ellipse class="cls-26" cx="989.56" cy="633.26" rx="38.07" ry="25.14"/><rect class="cls-8" x="918.51" y="849.68" width="137.1" height="125.97" rx="19.68"/><path class="cls-9" d="M1006.84,917.11a19.79,19.79,0,1,1-39.57,0c0-10.93,19.79-36.73,19.79-36.73S1006.84,906.18,1006.84,917.11Z"/><path class="cls-13" d="M998.57,916.18a12.45,12.45,0,0,1-12.45,12.45"/></g><g id="TIN_CAN" data-name="TIN CAN"><path class="cls-9" d="M712.41,1007v364.89c0,25.29-58.85,45.79-131.44,45.79s-131.45-20.5-131.45-45.79V1007c0-25.29,58.85-45.79,131.45-45.79S712.41,981.75,712.41,1007Z"/><path class="cls-13" d="M579.43,1074.31c-72.59,0-131.44-20.5-131.44-45.79"/><path class="cls-13" d="M579.43,1198.58c-72.59,0-131.44-20.51-131.44-45.8"/><path class="cls-13" d="M579.43,1322.84c-72.59,0-131.44-20.5-131.44-45.79"/><path class="cls-13" d="M541.31,1093.83c-54-5.69-93.32-23.16-93.32-43.83"/><path class="cls-13" d="M579.43,1095.79c-7.69,0-15.22-.23-22.55-.67"/><path class="cls-13" d="M476,1110.46c-17.53-7.78-28-17.59-28-28.24"/><path class="cls-13" d="M579.43,1128c-35.55,0-67.8-4.92-91.46-12.91"/><path class="cls-13" d="M476,1280.75c-17.53-7.78-28-17.59-28-28.25"/><path class="cls-13" d="M579.43,1298.29c-35.55,0-67.8-4.91-91.46-12.9"/><path class="cls-8" d="M712.41,1007c0,25.29-58.85,45.79-131.44,45.79s-131.45-20.5-131.45-45.79S508.37,961.25,581,961.25,712.41,981.75,712.41,1007Z"/><path class="cls-20" d="M700.84,1007c0,21.08-53.67,38.16-119.87,38.16S461.09,1028.12,461.09,1007,514.76,968.89,581,968.89,700.84,986,700.84,1007Z"/><path class="cls-19" d="M680.06,1004.44s-43.27,20.77-54.74,20.77a20.77,20.77,0,0,1,0-41.54C636.79,983.67,680.06,1004.44,680.06,1004.44Z"/><circle class="cls-8" cx="625.26" cy="1004.44" r="14.98" transform="translate(-336.79 315.74) rotate(-22.5)"/><line class="cls-27" x1="680.06" y1="995.2" x2="680.06" y2="1013.09"/><path class="cls-19" d="M712.41,1118.8v135c0,19.87-36.35,36.79-87.15,43.13v-135C676.06,1155.59,712.41,1138.67,712.41,1118.8Z"/></g><g id="APPLE"><line class="cls-28" x1="755.51" y1="989.46" x2="775.44" y2="1051.42"/><ellipse class="cls-5" cx="789.4" cy="1232.36" rx="179.61" ry="185.36"/><path class="cls-13" d="M973.3,1160.2a190.85,190.85,0,0,1-15.6,174.32"/><path class="cls-13" d="M631.34,1137.11a182.57,182.57,0,0,1,79.65-74.6"/><path class="cls-29" d="M856,1101.39c40.8,23.16,68.45,67.95,68.45,119.4"/><path class="cls-29" d="M813.54,1085.89q5.4.75,10.65,2"/><path class="cls-7" d="M845.4,1379.33a6.77,6.77,0,0,1-6.77,6.76H828v6.16a6.77,6.77,0,1,1-13.53,0v-6.16H803.83a6.77,6.77,0,1,1,0-13.53h10.63v-8.94a6.77,6.77,0,0,1,13.53,0v8.94h10.64A6.77,6.77,0,0,1,845.4,1379.33Z"/><path class="cls-7" d="M834.55,994.73c-9.94,28.52-45.36,42.11-45.36,42.11s-19.31-32.65-9.38-61.17,45.35-42.11,45.35-42.11S844.48,966.21,834.55,994.73Z"/><path class="cls-10" d="M825.16,933.56s19.32,32.65,9.39,61.17-45.36,42.11-45.36,42.11Z"/></g><g id="HONEY"><rect class="cls-10" x="370.58" y="1142.01" width="255.71" height="47.48" rx="18.14"/><rect class="cls-30" x="311.61" y="1189.49" width="373.64" height="228.08" rx="48.31"/><path class="cls-19" d="M634.27,1403.11H362.59a36.44,36.44,0,0,1-36.43-36.44V1240.38c0-20.12,16.31-31.83,36.43-31.83H634.27c20.12,0,36.43,11.71,36.43,31.83v126.29A36.44,36.44,0,0,1,634.27,1403.11Z"/><circle class="cls-8" cx="612.81" cy="1355.59" r="10.01"/><circle class="cls-8" cx="596.9" cy="1369.76" r="4.06"/><circle class="cls-8" cx="574.18" cy="1254.46" r="6.77"/><circle class="cls-8" cx="399.22" cy="1341.1" r="8.12"/><circle class="cls-8" cx="374.63" cy="1326.54" r="4.06"/><polygon class="cls-5" points="546.46 1140.47 546.46 1322.78 534.17 1310.48 522.22 1322.43 510.28 1310.48 497.99 1322.78 485.7 1310.48 473.75 1322.43 461.81 1310.48 449.52 1322.78 449.52 1140.47 546.46 1140.47"/><polygon class="cls-8" points="520.03 1216.24 501.38 1216.24 492.05 1232.4 501.38 1248.55 520.03 1248.55 529.36 1232.4 520.03 1216.24"/><polygon class="cls-8" points="486.33 1236.28 467.68 1236.28 458.35 1252.44 467.68 1268.59 486.33 1268.59 495.66 1252.44 486.33 1236.28"/><polygon class="cls-8" points="520.03 1255.99 501.38 1255.99 492.05 1272.15 501.38 1288.3 520.03 1288.3 529.36 1272.15 520.03 1255.99"/><path class="cls-31" d="M449.52,1322.78l9.9-9.9a3.38,3.38,0,0,1,4.78,0l9.55,9.55,9.56-9.55a3.38,3.38,0,0,1,4.78,0l9.9,9.9,9.9-9.9a3.38,3.38,0,0,1,4.78,0l9.55,9.55,9.56-9.55a3.38,3.38,0,0,1,4.78,0l9.9,9.9"/></g><g id="TEA"><path class="cls-19" d="M705.63,745.12l-320.3,41-12.25,1.56L317,794.88l-.26,0-21.16,2.71L270.29,599.9l403.1-51.63a7,7,0,0,1,7.8,6Z"/><rect class="cls-7" x="581.66" y="553.67" width="111.76" height="199.35" transform="matrix(0.99, -0.13, 0.13, 0.99, -77.83, 86.28)"/><path class="cls-9" d="M569.43,561.42c2.92,22.78-61.69,49.83-144.3,60.41s-151.95.69-154.87-22.1Z"/><path class="cls-8" d="M491.66,714.13c-9.58,20.49-33.53,30.48-42.55,33.6l20.53-43.9a2.71,2.71,0,0,0-4.9-2.3l-20.53,43.91c-3.38-8.92-11.07-33.7-1.49-54.2,11.92-25.5,46.06-34.73,46.06-34.73S503.58,688.63,491.66,714.13Z"/><path class="cls-8" d="M404.31,717.42,430,739.49c-7.51.55-24.86.56-36.55-9.46-15.27-13.1-15.09-38.38-15.09-38.38s25-4,40.24,9.06c11.68,10,14.32,27.15,14.92,34.67l-25.73-22.07a2.71,2.71,0,1,0-3.52,4.11Z"/><circle class="cls-15" cx="407.85" cy="670.99" r="8.98"/><circle class="cls-15" cx="439.65" cy="665.76" r="8.98" transform="translate(-223.19 221.72) rotate(-22.74)"/><circle class="cls-15" cx="420.43" cy="645.53" r="8.98"/><polyline class="cls-15" points="598.23 756.33 645.5 715.5 702.83 742.2"/><polyline class="cls-15" points="572.5 562.95 630.63 599.44 645.5 715.5"/><line class="cls-15" x1="677.99" y1="549.8" x2="630.63" y2="599.44"/></g></g><g id="MAN"><g id="LEGS"><g id="SHOES"><path class="cls-7" d="M1743.74,1455.62h0l-1.6,30.61-30.63-.34-28.3-19.64,39.71-33,6.34,9.74A35.11,35.11,0,0,0,1743.74,1455.62Z"/><polygon class="cls-10" points="1722.92 1433.26 1683.2 1466.27 1695.4 1474.73 1722.92 1433.26"/><path class="cls-19" d="M1825.5,1452.32l-93.09,73.9a11.1,11.1,0,0,1-18-7.71l-2.93-32.61,30.63.34,1.6-30.61a35.16,35.16,0,0,0,22.91,2.48l55.52-12.71A3.94,3.94,0,0,1,1825.5,1452.32Z"/><line class="cls-15" x1="1725.44" y1="1531.71" x2="1830.11" y2="1448.44"/><path class="cls-15" d="M1766.55,1451.35l-6.3,5.35-5.34-6.3a8.25,8.25,0,0,1,.95-11.64h0a8.25,8.25,0,0,1,11.64,1h0A8.26,8.26,0,0,1,1766.55,1451.35Z"/><polygon class="cls-7" points="1314.22 1454.08 1305.95 1477.11 1272.83 1477.11 1267.51 1448.44 1268.17 1447.82 1283.7 1433.26 1314.22 1454.08"/><polygon class="cls-10" points="1283.69 1433.26 1314.22 1454.08 1308.56 1469.84 1283.69 1433.26"/><path class="cls-19" d="M1267.51,1448.44l5.32,28.67h33l-.78,2.13c-1.58,13.82,4.73,31.6,17.65,36.78l16.09,5.84a3.52,3.52,0,0,1-1.31,6.78h-50.66l-49.48-55.25c-4.37-4.89-2.33-14.19,3.88-16.29Z"/><polyline class="cls-15" points="1231.35 1467.38 1286.84 1528.65 1341.78 1528.65"/><path class="cls-15" d="M1314.75,1496.39l-7.62-3.17,3.17-7.63a8.25,8.25,0,0,1,10.8-4.45h0a8.25,8.25,0,0,1,4.45,10.8h0A8.26,8.26,0,0,1,1314.75,1496.39Z"/></g><g id="LEGS-2" data-name="LEGS"><path class="cls-1" d="M1722.92,1433.26l-63.74,53-177.62-310-23.64,99-131.58,185.18-61.65-40.1,103.8-216.88,24.39-201.55a39.56,39.56,0,0,1,39.26-34.79h96.59a2.62,2.62,0,0,1,2.42,1.62h0Z"/><g class="cls-32"><line class="cls-18" x1="1453.5" y1="1279.49" x2="1453.5" y2="965.91"/><line class="cls-18" x1="1424.75" y1="1325.51" x2="1424.75" y2="965.91"/><line class="cls-18" x1="1483.12" y1="1175.17" x2="1483.12" y2="965.91"/><line class="cls-18" x1="1512.74" y1="1221.19" x2="1512.74" y2="965.91"/><line class="cls-18" x1="1542.37" y1="1279.49" x2="1542.37" y2="984.32"/><line class="cls-18" x1="1571.99" y1="1334.72" x2="1571.99" y2="1056.42"/><line class="cls-18" x1="1601.61" y1="1397.61" x2="1601.61" y2="1133.13"/><line class="cls-18" x1="1631.23" y1="1440.57" x2="1631.23" y2="1209.83"/><line class="cls-18" x1="1336.3" y1="1449.77" x2="1336.3" y2="1268.13"/><line class="cls-18" x1="1365.92" y1="1397.61" x2="1365.92" y2="1206.76"/><line class="cls-18" x1="1306.09" y1="1448.24" x2="1306.09" y2="1338.7"/><line class="cls-18" x1="1395.54" y1="1366.93" x2="1395.54" y2="984.32"/><line class="cls-18" x1="1623.19" y1="1190.75" x2="1369.11" y2="1190.75"/><line class="cls-18" x1="1612.45" y1="1161.13" x2="1373.71" y2="1161.13"/><line class="cls-18" x1="1601.71" y1="1131.51" x2="1373.71" y2="1131.51"/><line class="cls-18" x1="1586.37" y1="1101.89" x2="1379.85" y2="1101.89"/><line class="cls-18" x1="1572.56" y1="1072.27" x2="1382.91" y2="1072.27"/><line class="cls-18" x1="1561.83" y1="1042.65" x2="1385.98" y2="1042.65"/><line class="cls-18" x1="1549.55" y1="1013.03" x2="1392.12" y2="1013.03"/><line class="cls-18" x1="1537.28" y1="983.4" x2="1398.39" y2="983.4"/><line class="cls-18" x1="1719.84" y1="1427.9" x2="1260.19" y2="1427.9"/><line class="cls-18" x1="1735.18" y1="1457.83" x2="1260.19" y2="1457.83"/><line class="cls-18" x1="1712.17" y1="1398.28" x2="1273.99" y2="1398.28"/><line class="cls-18" x1="1701.43" y1="1368.66" x2="1284.73" y2="1368.66"/><line class="cls-18" x1="1689.16" y1="1339.04" x2="1300.07" y2="1339.04"/><line class="cls-18" x1="1672.28" y1="1309.42" x2="1315.41" y2="1309.42"/><line class="cls-18" x1="1658.48" y1="1279.8" x2="1330.75" y2="1279.8"/><line class="cls-18" x1="1647.74" y1="1250.17" x2="1346.1" y2="1250.17"/><line class="cls-18" x1="1632.4" y1="1220.55" x2="1360.04" y2="1220.55"/><line class="cls-18" x1="1662.19" y1="1480.46" x2="1662.19" y2="1280.4"/><line class="cls-18" x1="1692.88" y1="1455.91" x2="1692.88" y2="1369.38"/></g><path class="cls-15" d="M1481.56,1176.27l-65-118.19a88.69,88.69,0,0,1-11-42.77"/><line class="cls-15" x1="1659.18" y1="1486.24" x2="1722.92" y2="1433.26"/><line class="cls-15" x1="1264.69" y1="1420.32" x2="1326.34" y2="1460.42"/><line class="cls-15" x1="1527.41" y1="972.47" x2="1493.03" y2="1024.19"/></g></g><g id="HEAD"><g id="HEAD-2" data-name="HEAD"><path class="cls-10" d="M1526.12,632l-35.42-11.53s-9.84-26.54-4.45-35.15,64.24-17.13,64.24-17.13h0c16.92-3.3,31.62.15,33.58,8.21,2.1,8.59-11,19.17-29.32,23.63Z"/><path class="cls-7" d="M1579.28,630.23h-5a2,2,0,0,0-2,2.41l3.57,17.82a8.31,8.31,0,0,1-8.15,9.93h-6.51a9.22,9.22,0,0,0-9.21,9.22v25.26h-94.64a27.44,27.44,0,0,0,24-14.07l15.41-34.48a15,15,0,0,1-11.43-14.56v-.09a15.08,15.08,0,0,1,15.08-15.09h1.74a15.82,15.82,0,0,1,8.53,2.5l6.15,4c16.53-7.19,10.16-27.82,10.16-27.82,32.32,3.59,42.67-14.74,42.67-14.74l11.91,46.87A2.3,2.3,0,0,1,1579.28,630.23Z"/><path class="cls-10" d="M1561.18,660.39a9.16,9.16,0,0,0-9.15,9.13l-.06,15-25-29.73a17.43,17.43,0,0,0,12.8,5.59Z"/><path class="cls-10" d="M1553,603.53h12.42a0,0,0,0,1,0,0v2.21a5.21,5.21,0,0,1-5.21,5.21h-12.31a0,0,0,0,1,0,0v-2.31A5.11,5.11,0,0,1,1553,603.53Z" transform="translate(-99.54 386.03) rotate(-13.7)"/><path class="cls-10" d="M1561.85,617.75a2.44,2.44,0,1,1-2.43-2.71A2.58,2.58,0,0,1,1561.85,617.75Z"/><path class="cls-33" d="M1498.24,626a8.88,8.88,0,0,1,8.88,8.89"/><line class="cls-33" x1="1504.65" y1="628.71" x2="1499.27" y2="633.73"/><path class="cls-34" d="M1573.38,638.14c-3.47.7-9.1-2.45-9.1-5"/></g><g id="CAP"><path class="cls-9" d="M1568.1,566.29l-82.38,39-.64-3.05a45.46,45.46,0,0,1,28-51.74l25.61-9.94a14.6,14.6,0,0,1,17.87,6.18Z"/><line class="cls-14" x1="1485.72" y1="605.33" x2="1588.89" y2="557.71"/><polygon class="cls-19" points="1557.38 548.14 1541.73 554.73 1546.03 565.37 1563.03 557.71 1557.38 548.14"/></g></g><g id="BODY"><path class="cls-9" d="M1415.13,967.1h108.39a13.08,13.08,0,0,0,12.77-10.25l29.56-133a165.77,165.77,0,0,0-.78-75.29L1552,694.87H1450.3a83.63,83.63,0,0,0-72,41.06L1245.64,961.59a24.33,24.33,0,0,0,10.56,34.33l22.27,10.54a24.33,24.33,0,0,0,30.31-8l96-136.25-7.83,84.88A18.31,18.31,0,0,0,1415.13,967.1Z"/><line class="cls-15" x1="1536.49" y1="712.05" x2="1545.04" y2="712.05"/><circle class="cls-19" cx="1545.04" cy="712.05" r="4.33"/><line class="cls-15" x1="1538.03" y1="732" x2="1546.58" y2="732"/><circle class="cls-19" cx="1546.58" cy="731.97" r="4.33"/><line class="cls-35" x1="1442.25" y1="791.11" x2="1439.18" y2="813.53"/><line class="cls-15" x1="1404.73" y1="862.23" x2="1455" y2="793.28"/><rect class="cls-3" x="1536.29" y="816.29" width="40.59" height="28.34" rx="6.16"/><path class="cls-36" d="M1451.84,694.87,1504,720.61a94.85,94.85,0,0,1,52.27,73.92l2.74,23.13.68-103.61"/><line class="cls-15" x1="1558.59" y1="809.76" x2="1558.59" y2="817.66"/><polygon class="cls-10" points="1542.25 844.63 1561.23 844.63 1560.02 850.08 1542.25 844.63"/><rect class="cls-19" x="1546.9" y="827.64" width="21.7" height="4.96"/><path class="cls-19" d="M1545.34,693.76l6.64-5.94v-9.48l9.14,13a10.5,10.5,0,0,1,1,10.26l-5.51,12.44L1552,694.87H1532.7l-9.06,15.69-73.34-15.69,21.84-27.32a10.69,10.69,0,0,1,12.7-3.09Z"/><line class="cls-35" x1="1523.64" y1="709.03" x2="1534.76" y2="691.51"/></g><g id="HAND"><path class="cls-7" d="M1246.82,1035l17.36-.41c15.88-1.29,30.78-15.67,23-31.85-3.3-6.85-14.47-11.46-24.26-15.68-10.12-4.36-19.24-5.3-27.7,1.75l-18.29,12.56a15.88,15.88,0,0,0-6.31,8.74l-10.4,33.92a8.61,8.61,0,0,0,8,11.13l31.07.71a10.35,10.35,0,0,0,9.44-5.63l.87-1.7a3.15,3.15,0,0,0-2.74-4.59h0a4.47,4.47,0,0,1-4.07-6.09h0A4.47,4.47,0,0,1,1246.82,1035Z"/><path class="cls-37" d="M1218.39,1030.68l-4.77,16a5.08,5.08,0,0,0,4.86,6.54h3.76l9,.34h-1.11a5.08,5.08,0,0,1-4.86-6.54l4.77-15.49"/><path class="cls-33" d="M1266.34,1018.67l-15.35,6.52a10,10,0,0,0-6.08,9.19"/></g></g></svg>